#N canvas 83 22 1373 744 10;
#X declare -path .;
#X declare -path rj;
#X obj 684 -296 declare -path .;
#X obj 785 -296 declare -path rj;
#X obj 684 -265 OVERVIEW;
#X text 752 -266 of all RjDj abstractions;
#X text 95 -253 mic /f0;
#X obj 144 76 vd~ test1 500;
#X obj 144 53 line~;
#X obj 145 -97 loadbang;
#X obj 223 -98 bng 15 250 50 0 empty empty empty 17 7 0 10 -262144
-1 -1;
#X obj 144 -27 + 1;
#X text 231 147 create echo field with fixed delay;
#X floatatom 255 -98 5 0 0 0 - - -;
#X msg 144 34 \$1 1000;
#X obj 145 -50 random 4;
#X msg 275 77 0.2;
#N canvas 0 22 450 300 noisy 0;
#X obj 128 55 env~;
#X obj 102 273 outlet;
#X obj 178 276 outlet;
#X obj 127 159 +;
#X obj 128 32 inlet~;
#X floatatom 42 208 5 0 0 0 - - -;
#X obj 168 162 * 0.98;
#X obj 126 185 * 0.02;
#X obj 192 33 inlet;
#X obj 192 86 f;
#X msg 193 58 bang;
#X obj 192 119 * 50;
#X obj 266 277 outlet;
#X obj 116 235 moses 80;
#X connect 0 0 3 0;
#X connect 0 0 9 1;
#X connect 3 0 6 0;
#X connect 3 0 7 0;
#X connect 4 0 0 0;
#X connect 6 0 3 1;
#X connect 7 0 5 0;
#X connect 7 0 12 0;
#X connect 7 0 13 0;
#X connect 8 0 10 0;
#X connect 9 0 11 0;
#X connect 10 0 9 0;
#X connect 11 0 3 1;
#X connect 13 0 1 0;
#X connect 13 1 2 0;
#X restore 348 -117 pd noisy;
#X obj 256 170 delread~ test1 1000;
#X obj 144 102 *~ 0.6;
#X obj 144 14 + 1000;
#X obj 145 -75 metro 250;
#X obj 144 126 lop~ 1000;
#X obj 248 199 delread~ test1 1500;
#X obj 144 -7 * 300;
#X msg 242 77 0.8;
#X obj 171 271 *~ 0.5;
#X obj 993 -1 tgl 15 0 empty empty empty 17 7 0 10 -262144 -1 -1 0
1;
#X obj 632 85 line~;
#X msg 645 59 \$1 100;
#X obj 504 148 *~;
#X obj 504 182 delwrite~ test1 10000;
#X obj 972 85 line~;
#X msg 969 56 1 1000;
#X msg 1026 62 0 10000;
#X obj 986 35 sel 1 0;
#X obj 191 312 *~;
#X obj 1059 -194 m_accel_magnitude;
#X obj 1059 -131 - 1;
#X obj 1059 -162 u_follower;
#X obj 1135 -169 loadbang;
#X obj 1059 -108 > 0;
#X obj 1059 -79 u_follower;
#X obj 1130 -89 loadbang;
#X obj 1059 -56 > 0.01;
#X msg 1135 -68 0.5;
#X msg 1140 -148 0.9;
#X floatatom 1019 -178 5 0 0 0 - - -;
#X obj 157 347 f0.soundoutput;
#X obj 504 76 f0.soundinput;
#X text 501 47 microphone input;
#X text 1054 -218 accelerometer input;
#X text 9 -206 based on korall and echolon.;
#X text 10 -188 mic input and accelerometer;
#X connect 5 0 15 0;
#X connect 5 0 17 0;
#X connect 5 0 24 0;
#X connect 6 0 5 0;
#X connect 7 0 19 0;
#X connect 8 0 19 0;
#X connect 9 0 22 0;
#X connect 11 0 19 1;
#X connect 12 0 6 0;
#X connect 13 0 9 0;
#X connect 14 0 17 1;
#X connect 15 0 23 0;
#X connect 15 1 14 0;
#X connect 16 0 24 0;
#X connect 17 0 20 0;
#X connect 18 0 12 0;
#X connect 19 0 13 0;
#X connect 20 0 29 0;
#X connect 21 0 24 0;
#X connect 22 0 18 0;
#X connect 23 0 17 1;
#X connect 24 0 34 0;
#X connect 25 0 27 0;
#X connect 25 0 33 0;
#X connect 26 0 28 1;
#X connect 27 0 26 0;
#X connect 28 0 29 0;
#X connect 30 0 34 1;
#X connect 31 0 30 0;
#X connect 32 0 30 0;
#X connect 33 0 31 0;
#X connect 33 1 32 0;
#X connect 34 0 46 0;
#X connect 34 0 46 1;
#X connect 35 0 37 0;
#X connect 36 0 39 0;
#X connect 37 0 36 0;
#X connect 38 0 44 0;
#X connect 39 0 40 0;
#X connect 40 0 42 0;
#X connect 41 0 43 0;
#X connect 42 0 25 0;
#X connect 43 0 40 1;
#X connect 44 0 37 1;
#X connect 45 0 36 0;
#X connect 47 0 28 0;
#X connect 47 1 28 0;
