#N canvas 83 22 1373 814 10;
#X declare -path .;
#X declare -path rj;
#X obj 1129 -288 loadbang;
#X obj 684 -296 declare -path .;
#X obj 785 -296 declare -path rj;
#X obj 973 -204 loadbang;
#X obj 279 242 tabplay~;
#X msg 973 -174 sr 22050 \, info;
#X obj 684 -265 OVERVIEW;
#X text 752 -266 of all RjDj abstractions;
#X obj 422 152 symbol \$0-v2;
#X obj 401 123 symbol \$0-v1;
#X obj -82 322 f0.soundoutput;
#X msg 279 218 set \$1 \, bang;
#X obj 102 -69 tgl 15 0 empty empty empty 17 7 0 10 -262144 -1 -1 0
1;
#X obj 302 -45 change;
#X obj 263 -266 m_accel_magnitude;
#X obj 302 -87 u_follower;
#X obj 373 -97 loadbang;
#X obj 302 -64 > 0.01;
#X msg 378 -76 0.5;
#X obj 263 -245 t f f;
#X obj 268 -215 -;
#X obj 268 -196 abs;
#X obj 302 -120 > 0.05;
#X text 300 -141 direct interaction;
#X text -33 267 main volume;
#X obj -82 267 *~ 0.95;
#X obj 1129 -259 delay 300;
#X obj 1129 -190 delay 300;
#X obj 1129 -221 u_samplebank \$0-v1;
#X obj 1129 -152 u_samplebank \$0-v2;
#X msg 1129 -240 open 3.wav;
#X msg 1129 -171 open 5.wav;
#X text 67 -261 knock /f0;
#X text -56 -195 detects impulse from accelerometer;
#X text -55 -178 call and response;
#X obj 428 -279 vsl 15 128 0 1 0 0 empty empty empty 0 -9 0 10 -262144
-1 -1 5500 1;
#X obj 102 -41 sel 1;
#X obj 102 -22 bng 15 250 50 0 empty empty empty 17 7 0 10 -262144
-1 -1;
#X obj 128 17 + 1;
#X obj 176 33 bng 15 250 50 0 empty empty empty 17 7 0 10 -262144 -1
-1;
#X text 209 36 reset counter;
#X floatatom 102 51 5 0 0 0 - - -;
#X obj 103 238 bng 15 250 50 0 empty empty empty 17 7 0 10 -262144
-1 -1;
#X obj 124 239 bng 15 250 50 0 empty empty empty 17 7 0 10 -262144
-1 -1;
#X obj 144 237 bng 15 250 50 0 empty empty empty 17 7 0 10 -262144
-1 -1;
#X obj 166 237 bng 15 250 50 0 empty empty empty 17 7 0 10 -262144
-1 -1;
#X obj 401 101 sel 0 1;
#X obj 294 338 line~;
#X obj 279 364 *~;
#X obj 374 243 tabplay~;
#X msg 374 219 set \$1 \, bang;
#X obj 374 365 *~;
#X obj 68 347 del 200;
#X obj 400 37 f;
#X obj 402 59 + 1;
#X obj 401 80 % 2;
#X text 384 20 pick soundfile;
#X msg 176 50 1;
#X obj 102 81 f;
#X obj 102 17 f 1;
#X obj 108 211 sel 1 2 3 4;
#X obj 68 392 random 100;
#X obj 69 417 > 50;
#X obj 69 443 sel 1;
#X obj 177 264 del 100;
#X obj 67 464 del 150;
#X obj 176 14 del 1000;
#X obj 125 328 random 50;
#X obj 125 347 + 150;
#X obj 68 323 t b b;
#X floatatom 128 368 5 0 0 0 - - -;
#X obj 294 300 + 150;
#X msg 294 319 1 \, 0 \$1;
#X obj 389 340 line~;
#X obj 389 302 + 150;
#X msg 389 321 1 \, 0 \$1;
#X obj 294 281 random 100;
#X obj 389 283 random 100;
#X obj 183 286 del 100;
#X obj 184 306 del 100;
#X connect 0 0 26 0;
#X connect 3 0 5 0;
#X connect 4 0 48 0;
#X connect 5 0 28 0;
#X connect 5 0 29 0;
#X connect 8 0 50 0;
#X connect 9 0 11 0;
#X connect 11 0 4 0;
#X connect 12 0 36 0;
#X connect 13 0 12 0;
#X connect 14 0 19 0;
#X connect 15 0 17 0;
#X connect 16 0 18 0;
#X connect 17 0 13 0;
#X connect 18 0 15 1;
#X connect 19 0 20 1;
#X connect 19 1 20 0;
#X connect 20 0 21 0;
#X connect 21 0 22 0;
#X connect 22 0 15 0;
#X connect 25 0 10 0;
#X connect 25 0 10 1;
#X connect 26 0 30 0;
#X connect 26 0 27 0;
#X connect 27 0 31 0;
#X connect 30 0 28 0;
#X connect 31 0 29 0;
#X connect 35 0 19 0;
#X connect 36 0 37 0;
#X connect 37 0 59 0;
#X connect 37 0 66 0;
#X connect 38 0 59 1;
#X connect 39 0 57 0;
#X connect 39 0 58 0;
#X connect 41 0 58 1;
#X connect 42 0 53 0;
#X connect 43 0 53 0;
#X connect 43 0 69 0;
#X connect 44 0 53 0;
#X connect 44 0 64 0;
#X connect 45 0 53 0;
#X connect 46 0 9 0;
#X connect 46 0 76 0;
#X connect 46 1 8 0;
#X connect 46 1 77 0;
#X connect 47 0 48 1;
#X connect 48 0 25 0;
#X connect 49 0 51 0;
#X connect 50 0 49 0;
#X connect 51 0 25 0;
#X connect 52 0 53 0;
#X connect 52 0 61 0;
#X connect 53 0 54 0;
#X connect 54 0 53 1;
#X connect 54 0 55 0;
#X connect 55 0 46 0;
#X connect 57 0 59 1;
#X connect 58 0 60 0;
#X connect 59 0 38 0;
#X connect 59 0 41 0;
#X connect 60 0 42 0;
#X connect 60 1 43 0;
#X connect 60 2 44 0;
#X connect 60 3 45 0;
#X connect 61 0 62 0;
#X connect 62 0 63 0;
#X connect 63 0 65 0;
#X connect 64 0 53 0;
#X connect 64 0 78 0;
#X connect 65 0 53 0;
#X connect 66 0 39 0;
#X connect 67 0 68 0;
#X connect 68 0 52 1;
#X connect 68 0 70 0;
#X connect 69 0 52 0;
#X connect 69 1 67 0;
#X connect 71 0 72 0;
#X connect 72 0 47 0;
#X connect 73 0 51 1;
#X connect 74 0 75 0;
#X connect 75 0 73 0;
#X connect 76 0 71 0;
#X connect 77 0 74 0;
#X connect 78 0 53 0;
#X connect 78 0 79 0;
#X connect 79 0 53 0;
