#N canvas 1027 239 533 300 10;
#X obj 157 131 sampleloopplayer;
#X obj 246 93 bng 15 250 50 0 empty empty empty 17 7 0 10 -262144 -1
-1;
#X obj 157 104 tgl 15 0 empty empty empty 17 7 0 10 -262144 -1 -1 0
1;
#X obj 160 194 dac~;
#X text 266 92 click and select a soundfile;
#X text 56 102 start/stop loop;
#X connect 0 0 3 0;
#X connect 0 0 3 1;
#X connect 1 0 0 1;
#X connect 2 0 0 0;
