#N canvas 662 22 954 966 24;
#X declare -lib mrpeach;
#X obj 121 53 import mrpeach;
#X obj 156 174 udpreceive 9000;
#X obj 152 233 unpackOSC;
#X obj 87 422 print;
#X obj 77 381 bng 15 250 50 0 empty empty empty 17 7 0 10 -262144 -1
-1;
#X text 431 56 fred: 194.95.203.192;
#X obj 326 780 udpsend;
#X text 424 248 annie: 194.95.203.146;
#X obj 451 788 packOSC;
#X msg 451 742 send /test 0 1 2 3;
#X msg 289 632 disconnect;
#X text 440 108 mari: 194.95.203.21;
#X text 425 153 phil: 194.95.203.198;
#X text 430 295 joon: 194.95.203.37;
#X text 432 206 hyejoo: 194.95.203.199;
#X text 435 353 yair: 194.95.203.29;
#X text 433 406 chris: 194.95.203.183;
#X text 443 447 karen: 194.95.203.170;
#X text 445 486 tobias: 194.95.203.71;
#X msg 328 683 connect 194.95.203.21 9000;
#X obj 143 319 route /test /link;
#X obj 121 544 + 1;
#X floatatom 121 501 5 0 0 0 - - -;
#X floatatom 119 592 5 0 0 0 - - -;
#X msg 45 700 send /test \$1;
#X obj 83 637 pipe 20;
#X floatatom 228 506 5 0 0 0 - - -;
#X connect 1 0 2 0;
#X connect 2 0 20 0;
#X connect 8 0 6 0;
#X connect 9 0 8 0;
#X connect 10 0 6 0;
#X connect 19 0 6 0;
#X connect 20 0 4 0;
#X connect 20 0 22 0;
#X connect 21 0 23 0;
#X connect 22 0 21 0;
#X connect 23 0 25 0;
#X connect 24 0 8 0;
#X connect 25 0 24 0;
#X connect 26 0 21 0;
