#N canvas 195 159 1339 712 24;
#X obj 276 184 vsl 15 128 0 127 0 0 empty empty empty 0 -9 0 10 -262144
-1 -1 4200 1;
#X obj 348 185 vsl 15 128 0 127 0 0 empty empty empty 0 -9 0 10 -262144
-1 -1 0 1;
#X obj 427 190 vsl 15 128 0 127 0 0 empty empty empty 0 -9 0 10 -262144
-1 -1 12700 1;
#X text 240 127 red;
#X text 311 128 green;
#X text 403 128 blue;
#X obj 208 574 dac~;
#X obj 188 422 ...????;
#X obj 295 446 osc~;
#X obj 288 389 mtof;
#X obj 280 496 *~ 0.2;
#X floatatom 352 401 5 0 0 0 - - -;
#X obj 440 450 osc~;
#X obj 433 393 mtof;
#X obj 425 500 *~ 0.2;
#X floatatom 497 405 5 0 0 0 - - -;
#X obj 616 458 osc~;
#X obj 609 401 mtof;
#X obj 601 508 *~ 0.2;
#X floatatom 673 413 5 0 0 0 - - -;
#X obj 816 96 tgl 15 0 empty empty empty 17 7 0 10 -262144 -1 -1 1
1;
#X obj 874 98 tgl 15 0 empty empty empty 17 7 0 10 -262144 -1 -1 1
1;
#X obj 933 95 tgl 15 0 empty empty empty 17 7 0 10 -262144 -1 -1 0
1;
#X text 794 63 red;
#X text 865 64 green;
#X text 957 64 blue;
#X obj 973 228 * 4;
#X obj 842 229 * 1;
#X obj 909 223 * 2;
#X obj 856 365 +;
#X obj 937 323 +;
#X floatatom 859 402 5 0 0 0 - - -;
#X obj 767 497 bng 15 250 50 0 empty empty empty 17 7 0 10 -262144
-1 -1;
#X obj 823 497 bng 15 250 50 0 empty empty empty 17 7 0 10 -262144
-1 -1;
#X obj 862 503 bng 15 250 50 0 empty empty empty 17 7 0 10 -262144
-1 -1;
#X obj 929 496 bng 15 250 50 0 empty empty empty 17 7 0 10 -262144
-1 -1;
#X obj 993 490 bng 15 250 50 0 empty empty empty 17 7 0 10 -262144
-1 -1;
#X obj 1071 526 bng 15 250 50 0 empty empty empty 17 7 0 10 -262144
-1 -1;
#X obj 1130 522 bng 15 250 50 0 empty empty empty 17 7 0 10 -262144
-1 -1;
#X obj 1191 488 bng 15 250 50 0 empty empty empty 17 7 0 10 -262144
-1 -1;
#X obj 818 151 t f b b;
#X obj 912 155 t b f b;
#X obj 1008 158 t b b f;
#X obj 858 432 sel 0 1 2 3 4 5 6 7;
#X text 1194 516 white;
#X text 743 516 black;
#X text 808 518 red;
#X text 849 518 green;
#X text 980 510 blue;
#X text 917 532 yellow;
#X text 1048 549 cyan;
#X text 1112 552 magenta;
#X connect 0 0 9 0;
#X connect 1 0 13 0;
#X connect 2 0 17 0;
#X connect 8 0 10 0;
#X connect 9 0 8 0;
#X connect 9 0 11 0;
#X connect 10 0 6 0;
#X connect 12 0 14 0;
#X connect 13 0 12 0;
#X connect 13 0 15 0;
#X connect 14 0 6 1;
#X connect 16 0 18 0;
#X connect 17 0 16 0;
#X connect 17 0 19 0;
#X connect 18 0 6 1;
#X connect 20 0 40 0;
#X connect 21 0 41 0;
#X connect 22 0 42 0;
#X connect 26 0 30 1;
#X connect 27 0 29 0;
#X connect 28 0 30 0;
#X connect 29 0 31 0;
#X connect 30 0 29 1;
#X connect 31 0 43 0;
#X connect 40 0 27 0;
#X connect 40 1 28 0;
#X connect 40 2 26 0;
#X connect 41 0 27 0;
#X connect 41 1 28 0;
#X connect 41 2 26 0;
#X connect 42 0 27 0;
#X connect 42 1 28 0;
#X connect 42 2 26 0;
#X connect 43 0 32 0;
#X connect 43 1 33 0;
#X connect 43 2 34 0;
#X connect 43 3 35 0;
#X connect 43 4 36 0;
#X connect 43 5 37 0;
#X connect 43 6 38 0;
#X connect 43 7 39 0;
