#N canvas 409 37 1027 711 16;
#X obj 216 -137 t f f;
#X obj 220 -103 -;
#X obj 220 -11 abs;
#X obj 220 67 vsl 15 128 0 127 0 0 empty empty empty 0 -9 0 10 -262144
-1 -1 99 1;
#X floatatom 230 27 5 0 0 0 - - -;
#X obj 216 -322 vsl 15 128 -100 100 0 0 empty empty empty 0 -9 0 10
-262144 -1 -1 7937 1;
#X floatatom 216 -176 5 0 0 0 - - -;
#X obj 492 217 delay 1000;
#X obj 513 154 sel 1;
#X msg 415 206 1;
#X msg 452 205 0;
#X obj 432 249 tgl 15 0 empty empty empty 17 7 0 10 -262144 -1 -1 0
1;
#X text 553 118 threshold;
#X text 417 272 detect if something moved more than threshold;
#X text 417 298 and prevent double trig;
#X floatatom 220 -72 5 0 0 0 - - -;
#X text 271 -77 calculate the difference;
#X text 261 -14 take the absolute to get the difference both up and
down;
#X obj 399 -256 r #accelerate;
#X obj 395 -214 unpack f f f;
#X floatatom 384 -172 5 0 0 0 - - -;
#X floatatom 442 -171 5 0 0 0 - - -;
#X floatatom 508 -170 5 0 0 0 - - -;
#X obj 383 -137 * 100;
#X obj 513 126 > 10;
#X text 3 -27 new= abs(this-prev);
#X connect 0 0 1 1;
#X connect 0 1 1 0;
#X connect 1 0 15 0;
#X connect 2 0 3 0;
#X connect 2 0 4 0;
#X connect 4 0 24 0;
#X connect 5 0 6 0;
#X connect 6 0 0 0;
#X connect 7 0 10 0;
#X connect 8 0 7 0;
#X connect 8 0 9 0;
#X connect 9 0 11 0;
#X connect 10 0 11 0;
#X connect 15 0 2 0;
#X connect 18 0 19 0;
#X connect 19 0 20 0;
#X connect 19 1 21 0;
#X connect 19 2 22 0;
#X connect 20 0 23 0;
#X connect 23 0 5 0;
#X connect 24 0 8 0;
