#N canvas 649 124 540 589 24;
#X obj 62 40 gemhead;
#X obj 62 109 pix_video;
#X obj 80 479 gemwin;
#X obj 62 180 pix_texture;
#X obj 61 231 rectangle 4 4;
#X msg 215 362 create \, 1;
#X msg 221 420 destroy;
#X msg 212 41 dimen 640 480;
#X floatatom 270 143 5 0 0 0 - - -;
#X floatatom 274 184 5 0 0 0 - - -;
#X connect 0 0 1 0;
#X connect 1 0 3 0;
#X connect 3 0 4 0;
#X connect 5 0 2 0;
#X connect 6 0 2 0;
#X connect 7 0 1 0;
#X connect 8 0 4 1;
#X connect 9 0 4 2;
