#N canvas 433 556 1051 353 10;
#X declare -lib mrpeach;
#X obj 113 93 gemhead;
#X obj 113 117 pix_video;
#X msg 21 57 dimen 640 480;
#X obj 21 38 loadbang;
#X obj 113 136 s videoinput;
#X text 264 15 16 voices \, each 2sec long (2*60fps= 120);
#X obj 113 286 gemwin;
#X msg 162 286 destroy;
#X msg 113 258 create \, 1;
#X obj 21 103 loadbang;
#X obj 113 168 r videooutput;
#X obj 113 187 pix_texture;
#X obj 113 206 rectangle 5.3333 4;
#X text 1 256 click to start ->;
#X obj 648 233 line;
#X obj 648 296 send;
#X obj 726 162 unpack s;
#X obj 726 181 t s b;
#X obj 648 181 unpack f f f;
#X msg 648 162 \$2 \$3 \$1;
#X obj 648 134 t a a;
#X obj 648 271 change;
#X obj 648 252 int;
#X msg 21 122 frame 60;
#X obj 568 296 send;
#X obj 568 254 t b a;
#X obj 595 273 symbol;
#X msg 753 200 -1;
#X obj 677 47 import mrpeach;
#X obj 568 47 udpreceive 8876;
#X obj 568 66 unpackOSC;
#X text 843 180 test record;
#X text 840 245 test play;
#X obj 568 90 route /rec /play;
#X msg 832 201 /rec buf0-writevideo;
#X msg 832 220 /rec buf1-writevideo;
#X msg 832 266 /play buf0-readvideo 1 120 2000;
#X msg 832 285 /play buf1-readvideo 1 120 2000;
#X obj 289 39 udkvideovoice buf0 120;
#X obj 289 58 udkvideovoice buf1 120;
#X obj 289 77 udkvideovoice buf2 120;
#X obj 289 96 udkvideovoice buf3 120;
#X obj 289 115 udkvideovoice buf4 120;
#X obj 289 134 udkvideovoice buf5 120;
#X obj 289 153 udkvideovoice buf6 120;
#X obj 289 172 udkvideovoice buf7 120;
#X obj 289 191 udkvideovoice buf8 120;
#X obj 289 210 udkvideovoice buf9 120;
#X obj 289 229 udkvideovoice buf10 120;
#X obj 289 248 udkvideovoice buf11 120;
#X obj 289 267 udkvideovoice buf12 120;
#X obj 289 286 udkvideovoice buf13 120;
#X obj 289 305 udkvideovoice buf14 120;
#X obj 289 324 udkvideovoice buf15 120;
#X text 558 15 incoming network commands from udksoundmain.rtf;
#X obj 832 141 print debug;
#X obj 832 122 spigot;
#X obj 865 105 tgl 15 0 empty empty empty 17 7 0 10 -262144 -1 -1 0
1;
#X text 884 104 test network;
#X connect 0 0 1 0;
#X connect 1 0 4 0;
#X connect 2 0 1 0;
#X connect 2 0 6 0;
#X connect 3 0 2 0;
#X connect 7 0 6 0;
#X connect 8 0 6 0;
#X connect 9 0 23 0;
#X connect 10 0 11 0;
#X connect 11 0 12 0;
#X connect 14 0 22 0;
#X connect 16 0 17 0;
#X connect 17 0 15 1;
#X connect 17 1 27 0;
#X connect 18 0 14 0;
#X connect 18 1 14 1;
#X connect 18 2 14 0;
#X connect 19 0 18 0;
#X connect 20 0 19 0;
#X connect 20 1 16 0;
#X connect 21 0 15 0;
#X connect 22 0 21 0;
#X connect 23 0 6 0;
#X connect 25 0 24 0;
#X connect 25 1 26 0;
#X connect 26 0 24 1;
#X connect 27 0 14 0;
#X connect 29 0 30 0;
#X connect 30 0 33 0;
#X connect 30 0 56 0;
#X connect 33 0 25 0;
#X connect 33 1 20 0;
#X connect 34 0 33 0;
#X connect 35 0 33 0;
#X connect 36 0 33 0;
#X connect 37 0 33 0;
#X connect 56 0 55 0;
#X connect 57 0 56 1;
