#N canvas 214 142 898 661 12;
#X obj 119 135 split 0 20;
#X floatatom 118 86 5 0 0 0 - - -;
#X floatatom 107 204 5 0 0 0 - - -;
#X obj 101 33 hsl 100 15 0 127 0 0 empty empty empty -2 -8 0 10 -262144
-1 -1 400 1;
#X obj 211 138 split 21 30;
#X obj 303 145 split 31 50;
#X obj 405 143 split 51 100;
#X floatatom 208 205 5 0 0 0 - - -;
#X floatatom 310 208 5 0 0 0 - - -;
#X floatatom 418 205 5 0 0 0 - - -;
#X obj 66 386 metro 400;
#X obj 66 336 tgl 15 0 empty empty empty 17 7 0 10 -262144 -1 -1 1
1;
#X obj 64 411 bng 15 250 50 0 empty empty empty 17 7 0 10 -262144 -1
-1;
#X obj 206 396 metro 400;
#X obj 206 346 tgl 15 0 empty empty empty 17 7 0 10 -262144 -1 -1 0
1;
#X obj 204 421 bng 15 250 50 0 empty empty empty 17 7 0 10 -262144
-1 -1;
#X obj 323 388 metro 400;
#X obj 323 338 tgl 15 0 empty empty empty 17 7 0 10 -262144 -1 -1 0
1;
#X obj 321 413 bng 15 250 50 0 empty empty empty 17 7 0 10 -262144
-1 -1;
#X obj 448 391 metro 400;
#X obj 448 341 tgl 15 0 empty empty empty 17 7 0 10 -262144 -1 -1 0
1;
#X obj 446 416 bng 15 250 50 0 empty empty empty 17 7 0 10 -262144
-1 -1;
#X obj 94 241 t b b;
#X msg 73 274 1;
#X msg 118 274 0;
#X obj 215 245 t b b;
#X msg 194 278 1;
#X msg 239 278 0;
#X obj 316 244 t b b;
#X msg 295 277 1;
#X msg 340 277 0;
#X obj 436 249 t b b;
#X msg 415 282 1;
#X msg 460 282 0;
#X obj 46 515 line~;
#X msg 49 487 1 \, 0 100;
#X obj 38 544 *~;
#X text 506 51 http://www.pd-tutorial.com/;
#X obj 11 452 osc~ 400;
#X obj 209 618 dac~;
#X obj 212 518 line~;
#X msg 215 490 1 \, 0 100;
#X obj 204 547 *~;
#X obj 177 455 osc~ 600;
#X obj 67 356 change;
#X obj 208 365 change;
#X obj 323 360 change;
#X obj 448 363 change;
#X obj 361 521 line~;
#X msg 364 493 1 \, 0 100;
#X obj 353 550 *~;
#X obj 326 458 osc~ 700;
#X obj 482 519 line~;
#X msg 485 491 1 \, 0 100;
#X obj 474 548 *~;
#X obj 447 456 osc~ 800;
#X connect 0 0 2 0;
#X connect 0 1 4 0;
#X connect 1 0 0 0;
#X connect 2 0 22 0;
#X connect 3 0 1 0;
#X connect 4 0 7 0;
#X connect 4 1 5 0;
#X connect 5 0 8 0;
#X connect 5 1 6 0;
#X connect 6 0 9 0;
#X connect 7 0 25 0;
#X connect 8 0 28 0;
#X connect 9 0 31 0;
#X connect 10 0 12 0;
#X connect 11 0 44 0;
#X connect 12 0 35 0;
#X connect 13 0 15 0;
#X connect 14 0 45 0;
#X connect 15 0 41 0;
#X connect 16 0 18 0;
#X connect 17 0 46 0;
#X connect 18 0 49 0;
#X connect 19 0 21 0;
#X connect 20 0 47 0;
#X connect 21 0 53 0;
#X connect 22 0 23 0;
#X connect 22 1 24 0;
#X connect 23 0 11 0;
#X connect 24 0 14 0;
#X connect 24 0 17 0;
#X connect 24 0 20 0;
#X connect 25 0 26 0;
#X connect 25 1 27 0;
#X connect 26 0 14 0;
#X connect 27 0 11 0;
#X connect 27 0 17 0;
#X connect 27 0 20 0;
#X connect 28 0 29 0;
#X connect 28 1 30 0;
#X connect 29 0 17 0;
#X connect 30 0 11 0;
#X connect 30 0 14 0;
#X connect 30 0 20 0;
#X connect 31 0 32 0;
#X connect 31 1 33 0;
#X connect 32 0 20 0;
#X connect 33 0 17 0;
#X connect 33 0 14 0;
#X connect 33 0 11 0;
#X connect 34 0 36 1;
#X connect 35 0 34 0;
#X connect 36 0 39 0;
#X connect 38 0 36 0;
#X connect 40 0 42 1;
#X connect 41 0 40 0;
#X connect 42 0 39 1;
#X connect 43 0 42 0;
#X connect 44 0 10 0;
#X connect 45 0 13 0;
#X connect 46 0 16 0;
#X connect 47 0 19 0;
#X connect 48 0 50 1;
#X connect 49 0 48 0;
#X connect 50 0 39 0;
#X connect 51 0 50 0;
#X connect 52 0 54 1;
#X connect 53 0 52 0;
#X connect 54 0 39 1;
#X connect 55 0 54 0;
