#N canvas 618 49 628 810 12;
#X declare -lib mrpeach;
#X obj 139 71 import mrpeach;
#X obj 27 116 spigot;
#X obj 77 93 tgl 15 0 empty empty empty 17 7 0 10 -262144 -1 -1 0 1
;
#X obj 27 145 print;
#X obj 136 140 unpackOSC;
#X obj 136 201 route 0 1 2 3 4 5 6 7 8 9 10;
#X obj 136 170 route /master;
#X floatatom 24 265 3 0 0 0 - - -;
#X obj 24 293 bng 20 250 50 0 empty empty empty 17 7 0 10 -262144 -1
-1;
#X obj 102 683 udpsend;
#X obj 103 651 packOSC;
#X floatatom 58 265 3 0 0 0 - - -;
#X obj 58 293 bng 20 250 50 0 empty empty empty 17 7 0 10 -262144 -1
-1;
#X floatatom 92 265 3 0 0 0 - - -;
#X obj 92 293 bng 20 250 50 0 empty empty empty 17 7 0 10 -262144 -1
-1;
#X floatatom 126 265 3 0 0 0 - - -;
#X obj 126 293 bng 20 250 50 0 empty empty empty 17 7 0 10 -262144
-1 -1;
#X floatatom 160 265 3 0 0 0 - - -;
#X obj 160 293 bng 20 250 50 0 empty empty empty 17 7 0 10 -262144
-1 -1;
#X floatatom 194 266 3 0 0 0 - - -;
#X obj 194 294 bng 20 250 50 0 empty empty empty 17 7 0 10 -262144
-1 -1;
#X floatatom 228 266 3 0 0 0 - - -;
#X obj 228 294 bng 20 250 50 0 empty empty empty 17 7 0 10 -262144
-1 -1;
#X floatatom 262 266 3 0 0 0 - - -;
#X obj 262 294 bng 20 250 50 0 empty empty empty 17 7 0 10 -262144
-1 -1;
#X text 189 24 THE MASTER PATCH;
#X text 368 60 master ip: 194.95.203.150;
#X msg 120 732 connect 194.95.203.255 9200;
#X text 430 359 philip 1 philip 2 petja 3 annie 4 tobias 5 sarah 6
hyejoo 7 yair 8 mari 9;
#X floatatom 192 595 5 0 0 0 - - -;
#X floatatom 293 268 3 0 0 0 - - -;
#X obj 293 296 bng 20 250 50 0 empty empty empty 17 7 0 10 -262144
-1 -1;
#X floatatom 324 270 3 0 0 0 - - -;
#X obj 324 298 bng 20 250 50 0 empty empty empty 17 7 0 10 -262144
-1 -1;
#X floatatom 353 272 3 0 0 0 - - -;
#X obj 353 300 bng 20 250 50 0 empty empty empty 17 7 0 10 -262144
-1 -1;
#X msg 50 370 send /slave 4 1 \$1;
#X msg 203 370 send /slave 4 8 \$1;
#X msg 112 427 send /slave 8 2 \$1;
#X msg 124 458 send /slave 3 7 \$1;
#X msg 134 496 send /slave 6 9 \$1;
#X msg 192 621 send /slave 0 0 \$1;
#X msg 298 421 send /slave 9 6 \$1;
#X msg 274 531 send /slave 1 8 \$1;
#X msg 26 589 send /slave 2 1 \$1;
#X msg 11 539 send /slave 6 3 \$1;
#X obj 136 111 udpreceive 9100;
#X obj 451 179 random 10;
#X obj 452 147 bng 15 250 50 0 empty empty empty 17 7 0 10 -262144
-1 -1;
#X msg 415 288 send /slave \$1 0 999;
#X floatatom 463 202 5 0 0 0 - - -;
#X obj 336 153 unpack;
#X obj 341 185 + 1;
#X floatatom 366 223 5 0 0 0 - - -;
#X obj 506 255 del 10;
#X obj 510 228 sel 4;
#X obj 319 120 print;
#X connect 1 0 3 0;
#X connect 2 0 1 1;
#X connect 4 0 1 0;
#X connect 4 0 6 0;
#X connect 5 0 7 0;
#X connect 5 1 11 0;
#X connect 5 2 13 0;
#X connect 5 3 15 0;
#X connect 5 4 17 0;
#X connect 5 5 19 0;
#X connect 5 6 21 0;
#X connect 5 7 23 0;
#X connect 5 8 30 0;
#X connect 5 9 32 0;
#X connect 5 10 34 0;
#X connect 6 0 51 0;
#X connect 6 0 48 0;
#X connect 6 0 56 0;
#X connect 7 0 8 0;
#X connect 10 0 9 0;
#X connect 11 0 12 0;
#X connect 11 0 36 0;
#X connect 11 0 44 0;
#X connect 13 0 14 0;
#X connect 13 0 38 0;
#X connect 15 0 16 0;
#X connect 15 0 45 0;
#X connect 17 0 18 0;
#X connect 19 0 20 0;
#X connect 21 0 22 0;
#X connect 21 0 42 0;
#X connect 23 0 24 0;
#X connect 23 0 39 0;
#X connect 27 0 9 0;
#X connect 29 0 41 0;
#X connect 30 0 31 0;
#X connect 30 0 37 0;
#X connect 30 0 43 0;
#X connect 32 0 33 0;
#X connect 32 0 40 0;
#X connect 34 0 35 0;
#X connect 36 0 10 0;
#X connect 37 0 10 0;
#X connect 38 0 10 0;
#X connect 39 0 10 0;
#X connect 40 0 10 0;
#X connect 41 0 10 0;
#X connect 42 0 10 0;
#X connect 43 0 10 0;
#X connect 44 0 10 0;
#X connect 45 0 10 0;
#X connect 46 0 4 0;
#X connect 47 0 50 0;
#X connect 48 0 47 0;
#X connect 49 0 10 0;
#X connect 50 0 49 0;
#X connect 50 0 55 0;
#X connect 51 0 52 0;
#X connect 52 0 53 0;
#X connect 54 0 48 0;
#X connect 55 0 54 0;
