#N canvas 0 22 601 968 24;
#X declare -lib mrpeach;
#X obj 76 111 import mrpeach;
#X obj 63 570 udpsend;
#X obj 37 403 packOSC;
#X msg 63 488 connect 194.95.203.150 9100;
#X obj 37 316 pack;
#X floatatom 126 263 5 0 0 0 - - -;
#X msg 37 357 send /master \$2 \$1;
#X floatatom 50 184 5 0 0 0 - - -;
#X text 126 182 send value;
#X text 63 33 RUN THIS PATCH ON YOUR MACHINE;
#X text 207 258 set to my personal index;
#X obj 299 620 udpreceive 9200;
#X obj 300 660 unpackOSC;
#X obj 299 698 route /slave;
#X obj 464 830 ==;
#X obj 254 838 spigot;
#X text 467 741 filter;
#X text 82 437 protocol: /master index sender value;
#X obj 300 784 unpack f f f;
#X obj 348 868 spigot;
#X floatatom 213 897 5 0 0 0 - - -;
#X floatatom 312 920 5 0 0 0 - - -;
#X msg 298 745 \$3 \$2 \$1;
#X connect 2 0 1 0;
#X connect 3 0 1 0;
#X connect 4 0 6 0;
#X connect 5 0 4 1;
#X connect 5 0 14 1;
#X connect 6 0 2 0;
#X connect 7 0 4 0;
#X connect 11 0 12 0;
#X connect 12 0 13 0;
#X connect 13 0 22 0;
#X connect 14 0 15 1;
#X connect 14 0 19 1;
#X connect 15 0 20 0;
#X connect 18 0 15 0;
#X connect 18 1 19 0;
#X connect 18 2 14 0;
#X connect 19 0 21 0;
#X connect 22 0 18 0;
