#N canvas 0 22 601 968 24;
#X declare -lib mrpeach;
#X obj 76 111 import mrpeach;
#X obj 63 570 udpsend;
#X obj 37 403 packOSC;
#X msg 63 488 connect 194.95.203.150 9100;
#X obj 37 316 pack;
#X floatatom 126 263 5 0 0 0 - - -;
#X msg 37 357 send /master \$2 \$1;
#X floatatom 50 184 5 0 0 0 - - -;
#X text 126 182 send value;
#X text 63 33 RUN THIS PATCH ON YOUR MACHINE;
#X text 207 258 set to my personal index;
#X obj 299 620 udpreceive 9200;
#X obj 300 660 unpackOSC;
#X obj 299 698 route /slave;
#X obj 464 830 ==;
#X text 467 741 filter;
#X text 82 437 protocol: /master index sender value;
#X obj 300 784 unpack f f f;
#X msg 298 745 \$3 \$2 \$1;
#X obj 31 722 mtof;
#X floatatom 31 673 5 0 0 0 - - -;
#X floatatom 31 774 5 0 0 0 - - -;
#X obj 366 881 spigot;
#X obj 334 926 bng 15 250 50 0 empty empty empty 17 7 0 10 -262144
-1 -1;
#X obj 32 842 osc~;
#X obj 37 920 dac~;
#X obj 37 882 *~;
#X obj 139 849 line~;
#X msg 136 807 1 \, 0 200;
#X obj 31 632 + 70;
#X obj 226 560 del 10;
#X connect 2 0 1 0;
#X connect 3 0 1 0;
#X connect 4 0 6 0;
#X connect 5 0 4 1;
#X connect 5 0 14 1;
#X connect 6 0 2 0;
#X connect 7 0 4 0;
#X connect 11 0 12 0;
#X connect 12 0 13 0;
#X connect 13 0 18 0;
#X connect 14 0 22 1;
#X connect 17 2 14 0;
#X connect 17 2 22 0;
#X connect 18 0 17 0;
#X connect 19 0 21 0;
#X connect 20 0 19 0;
#X connect 21 0 24 0;
#X connect 22 0 23 0;
#X connect 22 0 29 0;
#X connect 23 0 28 0;
#X connect 23 0 30 0;
#X connect 24 0 26 0;
#X connect 26 0 25 0;
#X connect 27 0 26 1;
#X connect 28 0 27 0;
#X connect 29 0 20 0;
#X connect 30 0 7 0;
