#N canvas 0 22 524 330 10;
#X declare -lib mrpeach;
#X obj 107 75 import mrpeach;
#X obj 108 160 udpreceive 57120;
#X obj 108 194 unpackOSC;
#X obj 108 234 print incoming;
#X obj 256 220 packOSC;
#X obj 257 250 udpsend;
#X msg 322 263 connect 127.0.0.1 12000;
#X msg 263 139 send abc 200 0 0 255;
#X obj 70 259 route /mouse;
#X floatatom 66 301 5 0 0 0 - - -;
#X obj 70 280 unpack f f;
#X floatatom 118 303 5 0 0 0 - - -;
#X floatatom 290 164 5 0 255 0 - - -;
#X msg 299 187 send abc 200 \$1 0 255;
#X connect 1 0 2 0;
#X connect 2 0 3 0;
#X connect 2 0 8 0;
#X connect 4 0 5 0;
#X connect 6 0 5 0;
#X connect 7 0 4 0;
#X connect 8 0 10 0;
#X connect 10 0 9 0;
#X connect 10 1 11 0;
#X connect 12 0 13 0;
#X connect 13 0 4 0;
