#N canvas 1027 239 533 300 10;
#X obj 152 169 bng 15 250 50 0 empty empty empty 17 7 0 10 -262144
-1 -1;
#X obj 152 195 spigot;
#X obj 53 76 sel 1;
#X obj 53 142 tabplay~ \$0-sound;
#N canvas 174 22 547 348 loader 0;
#X obj 68 36 inlet bang_to_load_file;
#X obj 68 285 outlet file_length_in_samples;
#X obj 68 63 openpanel;
#X obj 68 253 soundfiler;
#X msg 90 141 0;
#X msg 90 193 add \$1;
#X msg 68 88 set read -resize \$1;
#X text 250 117 this is a little trick;
#X text 251 131 to make a compound message;
#X text 252 144 with two $-n arguments!;
#X msg 68 222 read -resize /Applications/SuperCollider344/sounds/a11wlk01-44_1.aiff
1003-sound \;;
#X obj 68 114 t b b a;
#X obj 90 167 makefilename \$0-sound;
#X obj 203 63 table \$0-sound;
#X connect 0 0 2 0;
#X connect 2 0 6 0;
#X connect 3 0 1 0;
#X connect 4 0 12 0;
#X connect 5 0 10 0;
#X connect 6 0 11 0;
#X connect 10 0 3 0;
#X connect 11 0 10 0;
#X connect 11 1 4 0;
#X connect 11 2 10 0;
#X connect 12 0 5 0;
#X restore 319 101 pd loader;
#X obj 319 71 bng 15 250 50 0 empty empty empty 17 7 0 10 -262144 -1
-1;
#X floatatom 319 123 10 0 0 0 - - -;
#X text 383 123 length;
#X obj 53 235 outlet~ audio_out;
#X text 176 168 bang when finished;
#X text 198 196 looping gate;
#X obj 319 41 inlet bang_to_load_file;
#X obj 53 41 inlet 1_or_0_to_start_and_stop;
#X connect 0 0 1 0;
#X connect 1 0 3 0;
#X connect 2 0 3 0;
#X connect 3 0 8 0;
#X connect 3 1 0 0;
#X connect 4 0 6 0;
#X connect 5 0 4 0;
#X connect 11 0 5 0;
#X connect 12 0 2 0;
#X connect 12 0 1 1;
