#N canvas 463 655 896 358 10;
#X obj 137 28 gemhead;
#X obj 137 52 pix_video;
#X obj 137 119 pix_buffer_write buf0;
#X msg 194 27 dimen 640 480;
#X obj 194 8 loadbang;
#X obj 464 49 pix_buffer buf0 120;
#X obj 464 68 pix_buffer buf1 120;
#X obj 464 87 pix_buffer buf2 120;
#X obj 464 106 pix_buffer buf3 120;
#X obj 464 125 pix_buffer buf4 120;
#X obj 464 144 pix_buffer buf5 120;
#X obj 464 163 pix_buffer buf6 120;
#X obj 464 182 pix_buffer buf7 120;
#X obj 464 201 pix_buffer buf8 120;
#X obj 464 220 pix_buffer buf9 120;
#X obj 464 239 pix_buffer buf10 120;
#X obj 464 258 pix_buffer buf11 120;
#X text 460 24 16 buffers \, 2sec each;
#X obj 464 277 pix_buffer buf12 120;
#X obj 464 296 pix_buffer buf13 120;
#X obj 464 315 pix_buffer buf14 120;
#X obj 464 334 pix_buffer buf15 120;
#X connect 0 0 1 0;
#X connect 1 0 2 0;
#X connect 3 0 1 0;
#X connect 4 0 3 0;
