#N canvas 71 22 1309 814 10;
#X declare -path .;
#X declare -path rj;
#X obj 684 -294 declare -path .;
#X obj 785 -294 declare -path rj;
#X obj -58 345 f0.soundoutput;
#X obj 684 -263 OVERVIEW;
#X text 752 -264 of all RjDj abstractions;
#X obj 849 -175 loadbang;
#X obj 693 -187 loadbang;
#X msg 693 -157 sr 22050 \, info;
#X obj 849 -146 delay 300;
#X obj 849 -108 u_samplebank \$0-v0;
#X obj -19 281 *~ 0.95;
#X floatatom 325 -265 5 0 0 0 - - -;
#X obj 325 -200 t f f;
#X msg 849 -127 open 1.wav;
#X obj 325 -284 m_accel_roll;
#X text 22 -244 boll;
#X obj 284 -236 hsl 128 15 -2 2 0 0 empty empty empty -2 -8 0 10 -262144
-1 -1 0 1;
#X obj 325 -150 abs;
#X obj 325 -173 -;
#X obj 325 -112 tgl 15 0 empty empty empty 17 7 0 10 -262144 -1 -1
0 1;
#X obj 325 -131 > 1;
#X obj 62 -86 hsl 128 15 0 3000 0 0 empty empty empty -2 -8 0 10 -262144
-1 -1 6689 1;
#X floatatom 59 -69 10 0 0 0 - - -;
#X obj 325 -95 sel 1;
#X obj 1 196 tabread4~ \$0-v0;
#X obj 1 146 phasor~;
#X obj 1 165 *~ 44100;
#X floatatom 1 130 5 0 0 0 - - -;
#X obj 985 -116 unpack s f f f;
#X obj 1012 -82 t b f;
#X obj 1012 -44 /;
#X msg 1012 -63 1000;
#X floatatom 1012 -25 5 0 0 0 - - -;
#X obj 15 24 *;
#X floatatom 15 8 5 0 0 0 - - -;
#X obj 341 -24 timer;
#X floatatom 341 -5 5 0 0 0 - - -;
#X obj 325 -76 bng 15 250 50 0 empty empty empty 17 7 0 10 -262144
-1 -1;
#X obj 105 -142 line;
#X msg 105 -174 \$1 \$1;
#X obj 105 -223 delay 500;
#X obj 325 -56 t b b b;
#X msg 105 -204 3000 3000;
#X obj 58 65 bng 15 250 50 0 empty empty empty 17 7 0 10 -262144 -1
-1;
#X obj 62 87 random 100;
#X obj 66 111 / 100;
#X msg 521 192 dry \$1;
#X floatatom 521 145 5 0 0 1 dry_wet - -;
#X msg 507 109 depth \$1;
#X floatatom 507 81 5 0 0 1 depth_(min=1) - -;
#X obj 363 216 e_bitcrusher bc1000 4;
#X obj 521 166 / 100;
#X obj 70 -30 m_scale 0 3000 0 100;
#X obj 118 -7 m_scale 0 3000 1 16;
#X obj 539 318 e_fbdelay mydelay 2000;
#X msg 690 258 feedback \$1;
#X obj 690 204 / 100;
#X obj 690 98 vsl 15 100 0 100 0 0 empty empty feedback 0 -9 1 10 -262144
-1 -1 9900 1;
#X obj 613 280 sig~ 0;
#X obj 937 102 vsl 15 100 0 2000 0 0 empty empty delay_time(ms) 0 -9
1 10 -262144 -1 -1 9900 1;
#X msg 937 258 delay \$1;
#X floatatom 944 211 8 0 0 0 - - -;
#X floatatom 707 228 5 0 0 0 - - -;
#X obj 1013 74 vsl 15 128 0 127 0 0 empty empty delay_frequency 0 -9
1 10 -262144 -1 -1 12700 1;
#X msg 1013 258 delayfreq \$1;
#X obj 1013 208 mtof;
#X floatatom 1051 211 5 0 0 1 pitch - -;
#X obj 777 66 vsl 15 128 0 127 0 0 empty empty lowpass_cutoff_fr. 0
-9 1 10 -262144 -1 -1 12700 1;
#X obj 777 200 mtof;
#X floatatom 791 228 8 0 0 0 - - -;
#X msg 777 258 lpfreq \$1;
#X obj 1013 278 s \$0-trigger;
#X obj 613 174 vsl 15 100 0 2000 0 0 empty empty delay_time(ms) -10
-9 1 10 -262144 -1 -1 9900 1;
#X floatatom 1029 238 8 0 0 1 freq - -;
#X obj 730 321 hsl 50 15 0 1 0 0 empty empty empty -2 -8 0 10 -262144
-1 -1 2581 1;
#X floatatom 727 341 5 0 0 0 - - -;
#X msg 727 358 dry \$1;
#X text 727 377 default is dry=0 i.e. fully wet;
#X msg 858 258 input \$1;
#X obj 858 204 / 100;
#X obj 858 98 vsl 15 100 0 100 0 0 empty empty inputlevel 0 -9 1 10
-262144 -1 -1 9900 1;
#X floatatom 875 228 5 0 0 0 - - -;
#X obj 128 65 m_scale 0 3000 0 1;
#X obj 1102 116 loadbang;
#X msg 1105 143 127;
#X msg 1107 165 2000;
#X msg 1114 185 100;
#X msg 1128 212 127;
#X msg 1133 237 100;
#X msg 1139 259 2000;
#X obj 59 -52 m_scale 0 3000 8.3 1;
#X connect 5 0 8 0;
#X connect 6 0 7 0;
#X connect 7 0 9 0;
#X connect 8 0 13 0;
#X connect 9 0 28 0;
#X connect 10 0 2 0;
#X connect 10 0 2 1;
#X connect 11 0 12 0;
#X connect 11 0 16 0;
#X connect 12 0 18 1;
#X connect 12 1 18 0;
#X connect 13 0 9 0;
#X connect 14 0 11 0;
#X connect 17 0 20 0;
#X connect 18 0 17 0;
#X connect 19 0 23 0;
#X connect 20 0 19 0;
#X connect 21 0 22 0;
#X connect 21 0 52 0;
#X connect 21 0 53 0;
#X connect 21 0 82 0;
#X connect 22 0 90 0;
#X connect 23 0 37 0;
#X connect 24 0 50 0;
#X connect 25 0 26 0;
#X connect 26 0 24 0;
#X connect 27 0 25 0;
#X connect 28 1 29 0;
#X connect 28 2 26 1;
#X connect 29 0 31 0;
#X connect 29 1 30 1;
#X connect 30 0 32 0;
#X connect 31 0 30 0;
#X connect 32 0 33 1;
#X connect 33 0 27 0;
#X connect 34 0 33 0;
#X connect 35 0 36 0;
#X connect 36 0 39 0;
#X connect 37 0 41 0;
#X connect 37 0 43 0;
#X connect 38 0 21 0;
#X connect 39 0 38 0;
#X connect 40 0 42 0;
#X connect 41 0 40 0;
#X connect 41 1 35 0;
#X connect 41 2 35 1;
#X connect 42 0 39 0;
#X connect 43 0 44 0;
#X connect 44 0 45 0;
#X connect 45 0 25 1;
#X connect 46 0 50 1;
#X connect 47 0 51 0;
#X connect 48 0 50 1;
#X connect 49 0 48 0;
#X connect 50 0 54 0;
#X connect 51 0 46 0;
#X connect 52 0 47 0;
#X connect 53 0 49 0;
#X connect 54 0 10 0;
#X connect 55 0 54 2;
#X connect 56 0 55 0;
#X connect 56 0 62 0;
#X connect 57 0 56 0;
#X connect 58 0 54 1;
#X connect 59 0 60 0;
#X connect 59 0 61 0;
#X connect 60 0 54 2;
#X connect 63 0 65 0;
#X connect 63 0 66 0;
#X connect 64 0 54 2;
#X connect 64 0 71 0;
#X connect 65 0 64 0;
#X connect 65 0 73 0;
#X connect 67 0 68 0;
#X connect 68 0 70 0;
#X connect 68 0 69 0;
#X connect 70 0 54 2;
#X connect 72 0 58 0;
#X connect 74 0 75 0;
#X connect 75 0 76 0;
#X connect 76 0 54 2;
#X connect 78 0 54 2;
#X connect 79 0 81 0;
#X connect 79 0 78 0;
#X connect 80 0 79 0;
#X connect 82 0 74 0;
#X connect 83 0 84 0;
#X connect 83 0 85 0;
#X connect 83 0 86 0;
#X connect 83 0 87 0;
#X connect 83 0 88 0;
#X connect 83 0 89 0;
#X connect 84 0 63 0;
#X connect 85 0 59 0;
#X connect 86 0 80 0;
#X connect 87 0 67 0;
#X connect 88 0 57 0;
#X connect 89 0 72 0;
#X connect 90 0 34 0;
