#N canvas 723 94 847 866 24;
#X declare -lib mrpeach;
#X obj 121 53 import mrpeach;
#X obj 156 174 udpreceive 9000;
#X obj 152 233 unpackOSC;
#X obj 87 422 print;
#X obj 77 381 bng 15 250 50 0 empty empty empty 17 7 0 10 -262144 -1
-1;
#X text 431 56 fred: 194.95.203.192;
#X obj 326 780 udpsend;
#X text 424 248 annie: 194.95.203.146;
#X obj 451 788 packOSC;
#X msg 451 742 send /test 0 1 2 3;
#X obj 143 319 route /test link;
#X msg 328 683 connect 194.95.203.146 9000;
#X msg 289 632 disconnect;
#X text 440 108 mari: 194.95.203.21;
#X text 425 153 phil: 194.95.203.198;
#X text 430 295 joon: 194.95.203.37;
#X text 434 354 comment;
#X text 432 206 hyejoo: 194.95.203.199;
#X connect 1 0 2 0;
#X connect 2 0 10 0;
#X connect 8 0 6 0;
#X connect 9 0 8 0;
#X connect 10 0 3 0;
#X connect 10 0 4 0;
#X connect 11 0 6 0;
#X connect 12 0 6 0;
