#N canvas 267 109 1360 837 10;
#X declare -path .;
#X declare -path rj;
#X obj 684 -294 declare -path .;
#X obj 785 -294 declare -path rj;
#X obj -71 357 f0.soundoutput;
#X obj 691 -218 f0.soundinput;
#X obj 684 -263 OVERVIEW;
#X text 752 -264 of all RjDj abstractions;
#X floatatom 785 -79 5 0 0 0 - - -;
#X obj 691 -61 bng 15 250 50 0 empty empty empty 17 7 0 10 -262144
-1 -1;
#X obj 1034 -138 loadbang;
#X floatatom 753 153 5 0 0 0 - - -;
#X obj 878 -150 loadbang;
#X obj 696 478 tabplay~;
#X msg 878 -120 sr 22050 \, info;
#X obj 1034 -109 delay 300;
#X obj 1034 -52 delay 300;
#X msg 696 449 set \$1 \, bang;
#X obj 1034 5 delay 300;
#X obj 1034 62 delay 300;
#X obj 1034 119 delay 300;
#X obj 1034 176 delay 300;
#X obj 1034 233 delay 300;
#X obj 1034 -71 u_samplebank \$0-v0;
#X obj 1034 -14 u_samplebank \$0-v1;
#X obj 1034 43 u_samplebank \$0-v2;
#X obj 1034 100 u_samplebank \$0-v3;
#X obj 1034 157 u_samplebank \$0-v4;
#X obj 1034 214 u_samplebank \$0-v5;
#X obj 1034 271 u_samplebank \$0-v6;
#X obj 797 262 symbol \$0-v0;
#X obj 797 281 symbol \$0-v1;
#X obj 797 300 symbol \$0-v2;
#X obj 797 319 symbol \$0-v3;
#X obj 797 338 symbol \$0-v4;
#X obj 797 357 symbol \$0-v5;
#X obj 797 376 symbol \$0-v6;
#X obj 753 215 sel 0 1 2 3 4 5 6;
#X obj -19 281 *~ 0.95;
#X obj 772 66 sel 0 1 2 3;
#X obj 834 170 bng 15 250 50 0 empty empty empty 17 7 0 10 -262144
-1 -1;
#X obj 772 19 int;
#X obj 798 19 + 1;
#X obj 772 40 % 4;
#X floatatom 347 -268 5 0 0 0 - - -;
#X obj 225 39 bng 15 250 50 0 empty empty empty 17 7 0 10 -262144 -1
-1;
#X obj 336 137 bng 15 250 50 0 empty empty empty 17 7 0 10 -262144
-1 -1;
#X obj 347 -211 u_follower;
#X obj 419 -211 loadbang;
#X obj 347 -230 clip -1 1;
#X obj 347 -183 t f f;
#X obj 347 -140 spigot;
#X obj 347 -111 t f f;
#X obj 347 -68 spigot;
#X obj 374 -164 > -0.9;
#X obj 374 -92 < 0.9;
#X msg 419 -192 0.1;
#X obj 225 118 m_thresholds -0.1 0;
#X obj 225 20 m_thresholds 0 0.1;
#X floatatom 412 156 5 0 0 0 - - -;
#X obj 355 481 tabplay~;
#X msg 355 452 set \$1 \, bang;
#X obj 456 265 symbol \$0-v0;
#X obj 456 284 symbol \$0-v1;
#X obj 456 303 symbol \$0-v2;
#X obj 456 322 symbol \$0-v3;
#X obj 456 341 symbol \$0-v4;
#X obj 456 360 symbol \$0-v5;
#X obj 456 379 symbol \$0-v6;
#X obj 412 218 sel 0 1 2 3 4 5 6;
#X obj 493 173 bng 15 250 50 0 empty empty empty 17 7 0 10 -262144
-1 -1;
#X floatatom 177 153 5 0 0 0 - - -;
#X obj 120 478 tabplay~;
#X msg 120 449 set \$1 \, bang;
#X obj 221 262 symbol \$0-v0;
#X obj 221 281 symbol \$0-v1;
#X obj 221 300 symbol \$0-v2;
#X obj 221 319 symbol \$0-v3;
#X obj 221 338 symbol \$0-v4;
#X obj 221 357 symbol \$0-v5;
#X obj 221 376 symbol \$0-v6;
#X obj 177 215 sel 0 1 2 3 4 5 6;
#X obj 197 177 bng 15 250 50 0 empty empty empty 17 7 0 10 -262144
-1 -1;
#X obj 524 70 m_speedlimit 1000;
#X obj 401 46 m_thresholds 0.2 0.45;
#X obj 774 179 print;
#X obj 691 -170 *~;
#X text 585 -171 mic threshold;
#X obj 547 -197 loadbang;
#X obj 738 -155 line~;
#X msg 639 -56 0;
#X msg 738 -174 \$1 1000;
#X obj 691 -80 a_onset 512 40;
#X msg 547 -171 0.015;
#X obj 691 -196 hip~ 300;
#X text 749 -194 filter mic input to reduce trigger sensitivity;
#X text 740 -101 onset threshold;
#X text 738 501 turn down mic when playing a background track to avoid
triggers;
#X msg 1034 -33 open 2.wav;
#X msg 1034 24 open 3.wav;
#X msg 1034 -90 open 1.wav;
#X msg 1034 81 open 4.wav;
#X msg 1034 138 open 5.wav;
#X msg 1034 195 open 6.wav;
#X msg 1034 252 open 7.wav;
#X msg 225 56 1;
#X msg 336 154 0;
#X msg 524 94 2;
#X msg 753 95 3;
#X msg 781 95 4;
#X msg 809 95 5;
#X msg 837 95 6;
#X obj 691 -38 m_speedlimit 1000;
#X text 237 -1 tilt forward;
#X text 237 97 tilt backward;
#X text 413 25 tilt maximum;
#X text 115 -247 tilt /f0;
#X text -1 -184 based on the rocking horse. tilt and hit.;
#X obj 347 -287 m_accel_pitch;
#X text 435 -285 or m_accel_roll;
#X connect 3 0 92 0;
#X connect 6 0 90 1;
#X connect 7 0 88 0;
#X connect 7 0 110 0;
#X connect 8 0 13 0;
#X connect 9 0 35 0;
#X connect 9 0 38 0;
#X connect 9 0 83 0;
#X connect 10 0 12 0;
#X connect 11 0 36 0;
#X connect 11 1 91 0;
#X connect 12 0 21 0;
#X connect 12 0 22 0;
#X connect 12 0 23 0;
#X connect 12 0 24 0;
#X connect 12 0 25 0;
#X connect 12 0 26 0;
#X connect 12 0 27 0;
#X connect 13 0 98 0;
#X connect 13 0 14 0;
#X connect 14 0 96 0;
#X connect 14 0 16 0;
#X connect 15 0 11 0;
#X connect 16 0 97 0;
#X connect 16 0 17 0;
#X connect 17 0 99 0;
#X connect 17 0 18 0;
#X connect 18 0 100 0;
#X connect 18 0 19 0;
#X connect 19 0 101 0;
#X connect 19 0 20 0;
#X connect 20 0 102 0;
#X connect 28 0 15 0;
#X connect 29 0 15 0;
#X connect 30 0 15 0;
#X connect 31 0 15 0;
#X connect 32 0 15 0;
#X connect 33 0 15 0;
#X connect 34 0 15 0;
#X connect 35 0 28 0;
#X connect 35 1 29 0;
#X connect 35 2 30 0;
#X connect 35 3 31 0;
#X connect 35 4 32 0;
#X connect 35 5 33 0;
#X connect 35 6 34 0;
#X connect 36 0 2 0;
#X connect 36 0 2 1;
#X connect 37 0 106 0;
#X connect 37 1 107 0;
#X connect 37 2 108 0;
#X connect 37 3 109 0;
#X connect 39 0 40 0;
#X connect 39 0 41 0;
#X connect 40 0 39 1;
#X connect 41 0 37 0;
#X connect 42 0 47 0;
#X connect 43 0 103 0;
#X connect 44 0 104 0;
#X connect 45 0 48 0;
#X connect 46 0 54 0;
#X connect 47 0 45 0;
#X connect 48 0 49 0;
#X connect 48 1 52 0;
#X connect 49 0 50 0;
#X connect 50 0 51 0;
#X connect 50 1 53 0;
#X connect 51 0 55 0;
#X connect 51 0 56 0;
#X connect 51 0 82 0;
#X connect 52 0 49 1;
#X connect 53 0 51 1;
#X connect 54 0 45 1;
#X connect 55 1 44 0;
#X connect 56 0 43 0;
#X connect 57 0 67 0;
#X connect 57 0 68 0;
#X connect 58 0 36 0;
#X connect 59 0 58 0;
#X connect 60 0 59 0;
#X connect 61 0 59 0;
#X connect 62 0 59 0;
#X connect 63 0 59 0;
#X connect 64 0 59 0;
#X connect 65 0 59 0;
#X connect 66 0 59 0;
#X connect 67 0 60 0;
#X connect 67 1 61 0;
#X connect 67 2 62 0;
#X connect 67 3 63 0;
#X connect 67 4 64 0;
#X connect 67 5 65 0;
#X connect 67 6 66 0;
#X connect 69 0 79 0;
#X connect 69 0 80 0;
#X connect 70 0 36 0;
#X connect 71 0 70 0;
#X connect 72 0 71 0;
#X connect 73 0 71 0;
#X connect 74 0 71 0;
#X connect 75 0 71 0;
#X connect 76 0 71 0;
#X connect 77 0 71 0;
#X connect 78 0 71 0;
#X connect 79 0 72 0;
#X connect 79 1 73 0;
#X connect 79 2 74 0;
#X connect 79 3 75 0;
#X connect 79 4 76 0;
#X connect 79 5 77 0;
#X connect 79 6 78 0;
#X connect 81 0 105 0;
#X connect 82 1 81 0;
#X connect 84 0 90 0;
#X connect 86 0 91 0;
#X connect 87 0 84 1;
#X connect 88 0 89 0;
#X connect 89 0 87 0;
#X connect 90 0 7 0;
#X connect 91 0 89 0;
#X connect 92 0 84 0;
#X connect 96 0 22 0;
#X connect 97 0 23 0;
#X connect 98 0 21 0;
#X connect 99 0 24 0;
#X connect 100 0 25 0;
#X connect 101 0 26 0;
#X connect 102 0 27 0;
#X connect 103 0 69 0;
#X connect 104 0 69 0;
#X connect 105 0 57 0;
#X connect 106 0 9 0;
#X connect 107 0 9 0;
#X connect 108 0 9 0;
#X connect 109 0 9 0;
#X connect 110 0 39 0;
#X connect 116 0 42 0;
