#N canvas 267 109 1165 705 10;
#X declare -path .;
#X declare -path rj;
#X obj 684 -294 declare -path .;
#X obj 785 -294 declare -path rj;
#X obj -58 345 f0.soundoutput;
#X obj 684 -263 OVERVIEW;
#X text 752 -264 of all RjDj abstractions;
#X obj 849 -175 loadbang;
#X obj 693 -187 loadbang;
#X msg 693 -157 sr 22050 \, info;
#X obj 849 -146 delay 300;
#X obj 849 -89 delay 300;
#X obj 849 -32 delay 300;
#X obj 849 25 delay 300;
#X obj 849 82 delay 300;
#X obj 849 139 delay 300;
#X obj 849 196 delay 300;
#X obj 849 -108 u_samplebank \$0-v0;
#X obj 849 -51 u_samplebank \$0-v1;
#X obj 849 6 u_samplebank \$0-v2;
#X obj 849 63 u_samplebank \$0-v3;
#X obj 849 120 u_samplebank \$0-v4;
#X obj 849 177 u_samplebank \$0-v5;
#X obj 849 234 u_samplebank \$0-v6;
#X obj -19 281 *~ 0.95;
#X floatatom 325 -265 5 0 0 0 - - -;
#X obj 325 -200 t f f;
#X msg 849 -70 open 2.wav;
#X msg 849 -13 open 3.wav;
#X msg 849 -127 open 1.wav;
#X msg 849 44 open 4.wav;
#X msg 849 101 open 5.wav;
#X msg 849 158 open 6.wav;
#X msg 849 215 open 7.wav;
#X obj 325 -284 m_accel_roll;
#X text 22 -244 boll;
#X obj 284 -236 hsl 128 15 -2 2 0 0 empty empty empty -2 -8 0 10 -262144
-1 -1 6183 1;
#X obj 325 -150 abs;
#X obj 325 -173 -;
#X obj 325 -112 tgl 15 0 empty empty empty 17 7 0 10 -262144 -1 -1
0 1;
#X obj 325 -131 > 1;
#X obj 62 -86 hsl 128 15 0 3000 0 0 empty empty empty -2 -8 0 10 -262144
-1 -1 12700 1;
#X floatatom 59 -69 10 0 0 0 - - -;
#X obj 325 -95 sel 1;
#X obj 1 196 tabread4~ \$0-v0;
#X obj 1 146 phasor~;
#X obj 1 165 *~ 44100;
#X floatatom 1 130 5 0 0 0 - - -;
#X obj 985 -116 unpack s f f f;
#X obj 1012 -82 t b f;
#X obj 1012 -44 /;
#X msg 1012 -63 1000;
#X floatatom 1012 -25 5 0 0 0 - - -;
#X obj 15 24 *;
#X floatatom 15 8 5 0 0 0 - - -;
#X obj 341 -24 timer;
#X floatatom 341 -5 5 0 0 0 - - -;
#X obj 59 -52 m_scale 0 3000 2.5 0;
#X obj 325 -76 bng 15 250 50 0 empty empty empty 17 7 0 10 -262144
-1 -1;
#X obj 105 -142 line;
#X msg 105 -174 \$1 \$1;
#X obj 105 -223 delay 500;
#X obj 325 -56 t b b b;
#X msg 105 -204 3000 3000;
#X connect 5 0 8 0;
#X connect 6 0 7 0;
#X connect 7 0 15 0;
#X connect 7 0 16 0;
#X connect 7 0 17 0;
#X connect 7 0 18 0;
#X connect 7 0 19 0;
#X connect 7 0 20 0;
#X connect 7 0 21 0;
#X connect 8 0 27 0;
#X connect 8 0 9 0;
#X connect 9 0 25 0;
#X connect 9 0 10 0;
#X connect 10 0 26 0;
#X connect 10 0 11 0;
#X connect 11 0 28 0;
#X connect 11 0 12 0;
#X connect 12 0 29 0;
#X connect 12 0 13 0;
#X connect 13 0 30 0;
#X connect 13 0 14 0;
#X connect 14 0 31 0;
#X connect 15 0 46 0;
#X connect 22 0 2 0;
#X connect 22 0 2 1;
#X connect 23 0 24 0;
#X connect 23 0 34 0;
#X connect 24 0 36 1;
#X connect 24 1 36 0;
#X connect 25 0 16 0;
#X connect 26 0 17 0;
#X connect 27 0 15 0;
#X connect 28 0 18 0;
#X connect 29 0 19 0;
#X connect 30 0 20 0;
#X connect 31 0 21 0;
#X connect 32 0 23 0;
#X connect 35 0 38 0;
#X connect 36 0 35 0;
#X connect 37 0 41 0;
#X connect 38 0 37 0;
#X connect 39 0 40 0;
#X connect 40 0 55 0;
#X connect 41 0 56 0;
#X connect 42 0 22 0;
#X connect 43 0 44 0;
#X connect 44 0 42 0;
#X connect 45 0 43 0;
#X connect 46 1 47 0;
#X connect 46 2 44 1;
#X connect 47 0 49 0;
#X connect 47 1 48 1;
#X connect 48 0 50 0;
#X connect 49 0 48 0;
#X connect 50 0 51 1;
#X connect 51 0 45 0;
#X connect 52 0 51 0;
#X connect 53 0 54 0;
#X connect 54 0 58 0;
#X connect 55 0 52 0;
#X connect 56 0 60 0;
#X connect 57 0 39 0;
#X connect 58 0 57 0;
#X connect 59 0 61 0;
#X connect 60 0 59 0;
#X connect 60 1 53 0;
#X connect 60 2 53 1;
#X connect 61 0 58 0;
