#N canvas 236 52 783 550 10;
#X obj 210 366 timer;
#X floatatom 187 54 5 0 0 0 - - -;
#X text 230 51 fake heatbeat data;
#X obj 188 83 vsl 15 128 0 127 0 0 empty empty empty 0 -9 0 10 -262144
-1 -1 1300 1;
#X obj 198 252 > 5;
#X floatatom 201 277 5 0 0 0 - - -;
#X obj 211 316 sel 1 0;
#X obj 207 342 bng 15 250 50 0 empty empty empty 17 7 0 10 -262144
-1 -1;
#X floatatom 205 395 5 0 0 0 - - -;
#X obj 230 341 bng 15 250 50 0 empty empty empty 17 7 0 10 -262144
-1 -1;
#X obj 132 471 spigot;
#X obj 157 444 tgl 15 0 empty empty empty 17 7 0 10 -262144 -1 -1 0
1;
#X floatatom 113 431 5 0 0 0 - - -;
#X floatatom 135 509 5 0 0 0 - - -;
#X obj 207 427 > 250;
#X connect 0 0 8 0;
#X connect 1 0 3 0;
#X connect 3 0 4 0;
#X connect 4 0 5 0;
#X connect 5 0 6 0;
#X connect 6 0 7 0;
#X connect 6 1 9 0;
#X connect 7 0 0 0;
#X connect 8 0 14 0;
#X connect 9 0 0 1;
#X connect 10 0 13 0;
#X connect 11 0 10 1;
#X connect 12 0 10 0;
#X connect 14 0 11 0;
