#N canvas 637 22 877 629 10;
#X obj 123 140 *~;
#X obj 97 72 adc~;
#X obj 124 202 dac~;
#X floatatom 174 56 5 0 0 0 - - -;
#X obj 167 111 line~;
#X msg 166 86 \$1 20;
#X obj 425 337 atan2;
#X obj 396 214 unpack f f;
#X msg 384 183 10 10;
#X msg 494 185 120 95;
#X obj 496 217 unpack f f;
#X obj 460 269 -;
#X obj 508 270 -;
#X floatatom 427 364 5 0 0 0 - - -;
#X msg 496 160 9 10;
#X msg 496 137 90 0;
#X connect 0 0 2 0;
#X connect 1 0 0 0;
#X connect 3 0 5 0;
#X connect 4 0 0 1;
#X connect 5 0 4 0;
#X connect 6 0 13 0;
#X connect 7 0 11 0;
#X connect 7 1 12 0;
#X connect 8 0 7 0;
#X connect 9 0 10 0;
#X connect 10 0 11 1;
#X connect 10 1 12 1;
#X connect 11 0 6 0;
#X connect 12 0 6 1;
#X connect 14 0 10 0;
#X connect 15 0 10 0;
