#N canvas 83 22 1387 794 10;
#X declare -path .;
#X declare -path rj;
#X obj 1100 -282 loadbang;
#X obj 655 -290 declare -path .;
#X obj 756 -290 declare -path rj;
#X obj 944 -198 loadbang;
#X obj 616 423 tabplay~;
#X msg 944 -168 sr 22050 \, info;
#X obj 655 -259 OVERVIEW;
#X text 723 -260 of all RjDj abstractions;
#X msg 1100 -234 open 1.wav;
#X msg 1100 -165 open 2.wav;
#X msg 1100 -96 open 3.wav;
#X msg 1100 -27 open 4.wav;
#X msg 1100 42 open 5.wav;
#X msg 1100 111 open 6.wav;
#X msg 1100 180 open 7.wav;
#X msg 1100 249 open 8.wav;
#X obj 1100 -253 delay 300;
#X obj 1100 -184 delay 300;
#X obj 1100 -115 delay 300;
#X obj 1100 -46 delay 300;
#X obj 1100 23 delay 300;
#X obj 1100 92 delay 300;
#X obj 1100 161 delay 300;
#X obj 1100 230 delay 300;
#X obj 1100 301 delay 300;
#X obj 1100 370 delay 300;
#X msg 1100 320 open 9.wav;
#X msg 1100 389 open 10.wav;
#X obj 1100 -215 u_samplebank \$0-v1;
#X obj 1100 -146 u_samplebank \$0-v2;
#X obj 1100 -77 u_samplebank \$0-v3;
#X obj 1100 -8 u_samplebank \$0-v4;
#X obj 1100 61 u_samplebank \$0-v5;
#X obj 1100 130 u_samplebank \$0-v6;
#X obj 1100 199 u_samplebank \$0-v7;
#X obj 1100 268 u_samplebank \$0-v8;
#X obj 1100 339 u_samplebank \$0-v9;
#X obj 1100 408 u_samplebank \$0-v10;
#X obj 673 206 symbol \$0-v2;
#X obj 673 187 symbol \$0-v1;
#X obj 673 225 symbol \$0-v3;
#X obj 673 244 symbol \$0-v4;
#X obj 673 263 symbol \$0-v5;
#X obj 673 282 symbol \$0-v6;
#X obj 673 301 symbol \$0-v7;
#X obj 673 320 symbol \$0-v8;
#X obj 673 339 symbol \$0-v9;
#X obj 673 358 symbol \$0-v10;
#X obj 746 450 f0.soundoutput;
#X msg 616 399 set \$1 \, bang;
#X obj 673 165 sel 0 1 2 3 4 5 6 7 8 9;
#X obj 62 61 tgl 15 0 empty empty empty 17 7 0 10 -262144 -1 -1 0 1
;
#X obj 318 13 change;
#X obj 281 -266 m_accel_magnitude;
#X obj 318 -29 u_follower;
#X obj 389 -39 loadbang;
#X obj 318 -6 > 0.01;
#X msg 394 -18 0.5;
#X obj 281 -216 t f f;
#X obj 286 -186 -;
#X obj 286 -167 abs;
#X text 795 395 main volume;
#X text 38 -255 knock;
#X obj 62 81 sel 1 0;
#X floatatom 281 -237 5 0 0 0 - - -;
#X obj 89 136 timer;
#X floatatom 89 155 10 0 0 0 - - -;
#X obj 62 177 f;
#X obj 62 113 t b b;
#X floatatom 62 196 10 0 0 0 - - -;
#X text 396 -130 smooth input;
#X text 23 37 knocking or not knocking;
#X text 127 195 time since last knock;
#X obj 62 269 / 1000;
#X obj 62 288 int;
#X floatatom 62 312 5 0 0 0 - - -;
#X text -88 415 ignore number zero;
#X obj 11 355 moses 1;
#X obj -5 396 bng 15 250 50 0 empty empty empty 17 7 0 10 -262144 -1
-1;
#X obj 60 390 bng 15 250 50 0 empty empty empty 17 7 0 10 -262144 -1
-1;
#X obj 114 392 bng 15 250 50 0 empty empty empty 17 7 0 10 -262144
-1 -1;
#X obj 171 392 bng 15 250 50 0 empty empty empty 17 7 0 10 -262144
-1 -1;
#X text 125 234 wait time before answer;
#X text 108 280 calculate seconds;
#X text 166 414 longer;
#X msg 112 452 1;
#X floatatom 673 136 5 0 0 0 - - -;
#X msg 57 453 2;
#X msg 166 451 0;
#X obj 318 -48 tgl 15 0 empty empty empty 17 7 0 10 -262144 -1 -1 0
1;
#X floatatom 126 -153 5 0 0 0 - - -;
#X obj 129 -133 hsl 128 15 0 0.1 0 0 empty empty empty -2 -8 0 10 -262144
-1 -1 0 1;
#X floatatom 124 -90 5 0 0 0 - - -;
#X obj 127 -70 hsl 128 15 0 0.1 0 0 empty empty empty -2 -8 0 10 -262144
-1 -1 0 1;
#X obj 62 235 pipe 800;
#X obj 286 -141 u_follower;
#X obj 357 -151 loadbang;
#X msg 362 -130 0.5;
#X obj 318 -69 > 0.04;
#X text 373 -72 threshold;
#X obj 60 354 moses 4;
#X text 60 415 1-3sec;
#X text 114 417 4-12sec;
#X obj 108 354 moses 13;
#X obj 746 395 *~ 0.5;
#X connect 0 0 16 0;
#X connect 3 0 5 0;
#X connect 4 0 104 0;
#X connect 5 0 28 0;
#X connect 5 0 29 0;
#X connect 5 0 30 0;
#X connect 5 0 32 0;
#X connect 5 0 33 0;
#X connect 5 0 34 0;
#X connect 5 0 35 0;
#X connect 5 0 36 0;
#X connect 5 0 37 0;
#X connect 5 0 31 0;
#X connect 8 0 28 0;
#X connect 9 0 29 0;
#X connect 10 0 30 0;
#X connect 11 0 31 0;
#X connect 12 0 32 0;
#X connect 13 0 33 0;
#X connect 14 0 34 0;
#X connect 15 0 35 0;
#X connect 16 0 8 0;
#X connect 16 0 17 0;
#X connect 17 0 9 0;
#X connect 17 0 18 0;
#X connect 18 0 10 0;
#X connect 18 0 19 0;
#X connect 19 0 11 0;
#X connect 19 0 20 0;
#X connect 20 0 12 0;
#X connect 20 0 21 0;
#X connect 21 0 13 0;
#X connect 21 0 22 0;
#X connect 22 0 14 0;
#X connect 22 0 23 0;
#X connect 23 0 15 0;
#X connect 23 0 24 0;
#X connect 24 0 26 0;
#X connect 24 0 25 0;
#X connect 25 0 27 0;
#X connect 26 0 36 0;
#X connect 27 0 37 0;
#X connect 38 0 49 0;
#X connect 39 0 49 0;
#X connect 40 0 49 0;
#X connect 41 0 49 0;
#X connect 42 0 49 0;
#X connect 43 0 49 0;
#X connect 44 0 49 0;
#X connect 45 0 49 0;
#X connect 46 0 49 0;
#X connect 47 0 49 0;
#X connect 49 0 4 0;
#X connect 50 0 39 0;
#X connect 50 1 38 0;
#X connect 50 2 40 0;
#X connect 50 3 41 0;
#X connect 50 4 42 0;
#X connect 50 5 43 0;
#X connect 50 6 44 0;
#X connect 50 7 45 0;
#X connect 50 8 46 0;
#X connect 50 9 47 0;
#X connect 51 0 63 0;
#X connect 52 0 51 0;
#X connect 53 0 64 0;
#X connect 54 0 56 0;
#X connect 54 0 92 0;
#X connect 55 0 57 0;
#X connect 56 0 52 0;
#X connect 57 0 54 1;
#X connect 58 0 59 1;
#X connect 58 1 59 0;
#X connect 59 0 60 0;
#X connect 60 0 95 0;
#X connect 63 0 65 1;
#X connect 63 1 68 0;
#X connect 64 0 58 0;
#X connect 65 0 66 0;
#X connect 66 0 67 1;
#X connect 67 0 69 0;
#X connect 68 0 67 0;
#X connect 68 1 65 0;
#X connect 69 0 94 0;
#X connect 73 0 74 0;
#X connect 74 0 75 0;
#X connect 75 0 77 0;
#X connect 77 0 78 0;
#X connect 77 1 100 0;
#X connect 79 0 87 0;
#X connect 80 0 85 0;
#X connect 81 0 88 0;
#X connect 85 0 50 0;
#X connect 86 0 50 0;
#X connect 87 0 50 0;
#X connect 88 0 50 0;
#X connect 89 0 54 0;
#X connect 90 0 91 0;
#X connect 92 0 93 0;
#X connect 94 0 73 0;
#X connect 95 0 90 0;
#X connect 95 0 98 0;
#X connect 96 0 97 0;
#X connect 97 0 95 1;
#X connect 98 0 89 0;
#X connect 100 0 79 0;
#X connect 100 1 103 0;
#X connect 103 0 80 0;
#X connect 103 1 81 0;
#X connect 104 0 48 0;
#X connect 104 0 48 1;
