#N canvas 83 22 1373 744 10;
#X declare -path .;
#X declare -path rj;
#X obj 1129 -288 loadbang;
#X obj 684 -296 declare -path .;
#X obj 785 -296 declare -path rj;
#X obj 973 -204 loadbang;
#X obj 344 359 tabplay~;
#X msg 973 -174 sr 22050 \, info;
#X obj 684 -265 OVERVIEW;
#X text 752 -266 of all RjDj abstractions;
#X msg 1129 -240 open 1.wav;
#X msg 1129 -171 open 2.wav;
#X msg 1129 -102 open 3.wav;
#X msg 1129 -33 open 4.wav;
#X msg 1129 36 open 5.wav;
#X msg 1129 105 open 6.wav;
#X msg 1129 174 open 7.wav;
#X msg 1129 243 open 8.wav;
#X obj 1129 -259 delay 300;
#X obj 1129 -190 delay 300;
#X obj 1129 -121 delay 300;
#X obj 1129 -52 delay 300;
#X obj 1129 17 delay 300;
#X obj 1129 86 delay 300;
#X obj 1129 155 delay 300;
#X obj 1129 224 delay 300;
#X obj 1129 295 delay 300;
#X obj 1129 364 delay 300;
#X msg 1129 314 open 9.wav;
#X msg 1129 383 open 10.wav;
#X obj 1129 -221 u_samplebank \$0-v1;
#X obj 1129 -152 u_samplebank \$0-v2;
#X obj 1129 -83 u_samplebank \$0-v3;
#X obj 1129 -14 u_samplebank \$0-v4;
#X obj 1129 55 u_samplebank \$0-v5;
#X obj 1129 124 u_samplebank \$0-v6;
#X obj 1129 193 u_samplebank \$0-v7;
#X obj 1129 262 u_samplebank \$0-v8;
#X obj 1129 333 u_samplebank \$0-v9;
#X obj 1129 402 u_samplebank \$0-v10;
#X obj 401 142 symbol \$0-v2;
#X obj 401 123 symbol \$0-v1;
#X obj 401 161 symbol \$0-v3;
#X obj 401 180 symbol \$0-v4;
#X obj 401 199 symbol \$0-v5;
#X obj 401 218 symbol \$0-v6;
#X obj 401 237 symbol \$0-v7;
#X obj 401 256 symbol \$0-v8;
#X obj 401 275 symbol \$0-v9;
#X obj 401 294 symbol \$0-v10;
#X obj -82 322 f0.soundoutput;
#X msg 344 335 set \$1 \, bang;
#X obj 401 101 sel 0 1 2 3 4 5 6 7 8 9;
#X obj 102 -69 tgl 15 0 empty empty empty 17 7 0 10 -262144 -1 -1 0
1;
#X obj 302 -45 change;
#X obj 263 -266 m_accel_magnitude;
#X obj 302 -87 u_follower;
#X obj 373 -97 loadbang;
#X obj 302 -64 > 0.01;
#X msg 378 -76 0.5;
#X obj 263 -245 t f f;
#X obj 268 -215 -;
#X obj 268 -196 abs;
#X obj 102 57 metro 4000;
#X obj 102 89 t b b;
#X obj 102 212 random 10;
#X floatatom 102 231 5 0 0 0 - - -;
#X obj 129 131 + 500;
#X obj 129 112 random 6000;
#X obj 521 -170 u_follower;
#X obj 597 -178 loadbang;
#X obj 197 -3 sel 0 1;
#X msg 183 28 6000;
#X msg 191 50 500;
#X text 300 -141 direct interaction;
#X obj 389 -33 tgl 15 0 empty empty empty 17 7 0 10 -262144 -1 -1 0
1;
#X msg 521 -117 0;
#X msg 550 -117 1;
#X obj 432 -42 bng 15 250 50 0 empty empty empty 17 7 0 10 -262144
-1 -1;
#X msg 234 50 50;
#X obj 521 -140 m_thresholds 0.03 0.08;
#X msg 597 -159 0.995;
#X obj 432 -21 del 250;
#X obj 432 1 del 250;
#X msg 226 28 600;
#X text 513 -210 a lot of interaction over long time and notes will
repeat and play faster;
#X text -33 267 main volume;
#X text 94 249 pick random soundfile;
#X text 67 -261 hit /f0;
#X text -56 -195 based on slenduro \, accelerometer detect impact and
;
#X text -55 -178 plays a random soundfile. hit it hard to repeat;
#X text -55 -161 sounds.;
#X obj -82 267 *~ 0.95;
#X obj 302 -120 > 0.04;
#X connect 0 0 16 0;
#X connect 3 0 5 0;
#X connect 4 0 90 0;
#X connect 5 0 28 0;
#X connect 5 0 29 0;
#X connect 5 0 30 0;
#X connect 5 0 32 0;
#X connect 5 0 33 0;
#X connect 5 0 34 0;
#X connect 5 0 35 0;
#X connect 5 0 36 0;
#X connect 5 0 37 0;
#X connect 5 0 31 0;
#X connect 8 0 28 0;
#X connect 9 0 29 0;
#X connect 10 0 30 0;
#X connect 11 0 31 0;
#X connect 12 0 32 0;
#X connect 13 0 33 0;
#X connect 14 0 34 0;
#X connect 15 0 35 0;
#X connect 16 0 8 0;
#X connect 16 0 17 0;
#X connect 17 0 9 0;
#X connect 17 0 18 0;
#X connect 18 0 10 0;
#X connect 18 0 19 0;
#X connect 19 0 11 0;
#X connect 19 0 20 0;
#X connect 20 0 12 0;
#X connect 20 0 21 0;
#X connect 21 0 13 0;
#X connect 21 0 22 0;
#X connect 22 0 14 0;
#X connect 22 0 23 0;
#X connect 23 0 15 0;
#X connect 23 0 24 0;
#X connect 24 0 26 0;
#X connect 24 0 25 0;
#X connect 25 0 27 0;
#X connect 26 0 36 0;
#X connect 27 0 37 0;
#X connect 38 0 49 0;
#X connect 39 0 49 0;
#X connect 40 0 49 0;
#X connect 41 0 49 0;
#X connect 42 0 49 0;
#X connect 43 0 49 0;
#X connect 44 0 49 0;
#X connect 45 0 49 0;
#X connect 46 0 49 0;
#X connect 47 0 49 0;
#X connect 49 0 4 0;
#X connect 50 0 39 0;
#X connect 50 1 38 0;
#X connect 50 2 40 0;
#X connect 50 3 41 0;
#X connect 50 4 42 0;
#X connect 50 5 43 0;
#X connect 50 6 44 0;
#X connect 50 7 45 0;
#X connect 50 8 46 0;
#X connect 50 9 47 0;
#X connect 51 0 61 0;
#X connect 52 0 51 0;
#X connect 53 0 58 0;
#X connect 54 0 56 0;
#X connect 55 0 57 0;
#X connect 56 0 52 0;
#X connect 57 0 54 1;
#X connect 58 0 59 1;
#X connect 58 1 59 0;
#X connect 59 0 60 0;
#X connect 60 0 67 0;
#X connect 60 0 91 0;
#X connect 61 0 62 0;
#X connect 62 0 63 0;
#X connect 62 1 66 0;
#X connect 63 0 64 0;
#X connect 64 0 50 0;
#X connect 65 0 61 1;
#X connect 66 0 65 0;
#X connect 67 0 78 0;
#X connect 68 0 79 0;
#X connect 69 0 70 0;
#X connect 69 0 71 0;
#X connect 69 1 82 0;
#X connect 69 1 77 0;
#X connect 70 0 66 1;
#X connect 71 0 65 1;
#X connect 73 0 69 0;
#X connect 74 0 73 0;
#X connect 75 0 73 0;
#X connect 75 0 76 0;
#X connect 76 0 80 0;
#X connect 76 0 63 0;
#X connect 77 0 65 1;
#X connect 78 0 74 0;
#X connect 78 1 75 0;
#X connect 79 0 67 1;
#X connect 80 0 64 0;
#X connect 80 0 81 0;
#X connect 81 0 61 0;
#X connect 82 0 66 1;
#X connect 90 0 48 0;
#X connect 90 0 48 1;
#X connect 91 0 54 0;
