#N canvas -29 95 1383 842 10;
#X declare -path .;
#X declare -path rj;
#X obj 676 -739 declare -path .;
#X obj 777 -739 declare -path rj;
#X obj 676 -708 OVERVIEW;
#X text 744 -709 of all RjDj abstractions;
#X obj 149 -96 f0.soundoutput;
#X text 87 -696 coil;
#X obj 84 -498 sigmund~ -hop 4096 pitch env;
#X obj 75 -627 f0.soundinput;
#X floatatom 85 -457 5 0 0 0 - - -;
#X floatatom 226 -459 5 0 0 0 - - -;
#X obj 117 -284 osc~;
#X obj 86 -438 mtof;
#X obj 86 -415 moses 100;
#X obj 199 -301 dbtorms;
#X floatatom 202 -267 5 0 0 0 - - -;
#X obj 186 -212 line~;
#X floatatom 133 -391 5 0 0 0 - - -;
#X msg 203 -242 \$1 20;
#X obj 133 -214 *~;
#X obj 1121 -798 loadbang;
#X obj 965 -714 loadbang;
#X obj 590 -87 tabplay~;
#X msg 1121 -750 open 1.wav;
#X msg 1121 -681 open 2.wav;
#X msg 1121 -612 open 3.wav;
#X msg 1121 -543 open 4.wav;
#X msg 1121 -474 open 5.wav;
#X msg 1121 -405 open 6.wav;
#X msg 1121 -336 open 7.wav;
#X msg 1121 -267 open 8.wav;
#X obj 1121 -769 delay 300;
#X obj 1121 -700 delay 300;
#X obj 1121 -631 delay 300;
#X obj 1121 -562 delay 300;
#X obj 1121 -493 delay 300;
#X obj 1121 -424 delay 300;
#X obj 1121 -355 delay 300;
#X obj 1121 -286 delay 300;
#X obj 1121 -215 delay 300;
#X obj 1121 -146 delay 300;
#X msg 1121 -196 open 9.wav;
#X msg 1121 -127 open 10.wav;
#X obj 1121 -731 u_samplebank \$0-v1;
#X obj 1121 -662 u_samplebank \$0-v2;
#X obj 1121 -593 u_samplebank \$0-v3;
#X obj 1121 -524 u_samplebank \$0-v4;
#X obj 1121 -455 u_samplebank \$0-v5;
#X obj 1121 -386 u_samplebank \$0-v6;
#X obj 1121 -317 u_samplebank \$0-v7;
#X obj 1121 -248 u_samplebank \$0-v8;
#X obj 1121 -177 u_samplebank \$0-v9;
#X obj 1121 -108 u_samplebank \$0-v10;
#X obj 647 -304 symbol \$0-v2;
#X obj 647 -323 symbol \$0-v1;
#X obj 647 -285 symbol \$0-v3;
#X obj 647 -266 symbol \$0-v4;
#X obj 647 -247 symbol \$0-v5;
#X obj 647 -228 symbol \$0-v6;
#X obj 648 -209 symbol \$0-v7;
#X obj 647 -190 symbol \$0-v8;
#X obj 647 -171 symbol \$0-v9;
#X obj 647 -152 symbol \$0-v10;
#X obj 720 -60 f0.soundoutput;
#X msg 590 -111 set \$1 \, bang;
#X obj 647 -345 sel 0 1 2 3 4 5 6 7 8 9;
#X text 769 -115 main volume;
#X floatatom 641 -384 5 0 0 0 - - -;
#X obj 720 -115 *~ 0.5;
#X floatatom 501 -554 5 0 0 0 - - -;
#X floatatom 564 -553 5 0 0 0 - - -;
#X floatatom 624 -552 5 0 0 0 - - -;
#X floatatom 685 -554 5 0 0 0 - - -;
#X floatatom 499 -627 5 0 0 0 - - -;
#X msg 507 -482 0;
#X obj 505 -532 bng 15 250 50 0 empty empty empty 17 7 0 10 -262144
-1 -1;
#X obj 562 -527 bng 15 250 50 0 empty empty empty 17 7 0 10 -262144
-1 -1;
#X obj 624 -526 bng 15 250 50 0 empty empty empty 17 7 0 10 -262144
-1 -1;
#X obj 690 -528 bng 15 250 50 0 empty empty empty 17 7 0 10 -262144
-1 -1;
#X msg 569 -478 1;
#X msg 626 -476 2;
#X msg 691 -479 3;
#X floatatom 815 -554 5 0 0 0 - - -;
#X obj 817 -530 bng 15 250 50 0 empty empty empty 17 7 0 10 -262144
-1 -1;
#X obj 503 -580 moses 350;
#X obj 565 -581 moses 500;
#X obj 629 -581 moses 700;
#X obj 697 -582 moses 800;
#X floatatom 757 -554 5 0 0 0 - - -;
#X obj 761 -529 bng 15 250 50 0 empty empty empty 17 7 0 10 -262144
-1 -1;
#X obj 766 -581 moses 1200;
#X msg 763 -479 4;
#X msg 808 -475 5;
#X obj 631 -60 bng 15 250 50 0 empty empty empty 17 7 0 10 -262144
-1 -1;
#X obj 364 -570 f;
#X obj 654 -71 loadbang;
#X obj 637 -412 f;
#X msg 965 -684 sr 22050 \, info;
#X connect 6 0 8 0;
#X connect 6 1 9 0;
#X connect 7 0 6 0;
#X connect 7 1 6 0;
#X connect 8 0 11 0;
#X connect 9 0 13 0;
#X connect 10 0 18 0;
#X connect 11 0 12 0;
#X connect 12 1 16 0;
#X connect 13 0 14 0;
#X connect 14 0 17 0;
#X connect 15 0 18 1;
#X connect 16 0 10 0;
#X connect 16 0 93 1;
#X connect 17 0 15 0;
#X connect 18 0 4 1;
#X connect 18 0 4 0;
#X connect 19 0 30 0;
#X connect 20 0 96 0;
#X connect 21 0 67 0;
#X connect 21 1 92 0;
#X connect 22 0 42 0;
#X connect 23 0 43 0;
#X connect 24 0 44 0;
#X connect 25 0 45 0;
#X connect 26 0 46 0;
#X connect 27 0 47 0;
#X connect 28 0 48 0;
#X connect 29 0 49 0;
#X connect 30 0 22 0;
#X connect 30 0 31 0;
#X connect 31 0 23 0;
#X connect 31 0 32 0;
#X connect 32 0 24 0;
#X connect 32 0 33 0;
#X connect 33 0 25 0;
#X connect 33 0 34 0;
#X connect 34 0 26 0;
#X connect 34 0 35 0;
#X connect 35 0 27 0;
#X connect 35 0 36 0;
#X connect 36 0 28 0;
#X connect 36 0 37 0;
#X connect 37 0 29 0;
#X connect 37 0 38 0;
#X connect 38 0 40 0;
#X connect 38 0 39 0;
#X connect 39 0 41 0;
#X connect 40 0 50 0;
#X connect 41 0 51 0;
#X connect 52 0 63 0;
#X connect 53 0 63 0;
#X connect 54 0 63 0;
#X connect 55 0 63 0;
#X connect 56 0 63 0;
#X connect 57 0 63 0;
#X connect 58 0 63 0;
#X connect 59 0 63 0;
#X connect 60 0 63 0;
#X connect 61 0 63 0;
#X connect 63 0 21 0;
#X connect 64 0 53 0;
#X connect 64 1 52 0;
#X connect 64 2 54 0;
#X connect 64 3 55 0;
#X connect 64 4 56 0;
#X connect 64 5 57 0;
#X connect 64 6 58 0;
#X connect 64 7 59 0;
#X connect 64 8 60 0;
#X connect 64 9 61 0;
#X connect 66 0 64 0;
#X connect 67 0 62 0;
#X connect 67 0 62 1;
#X connect 68 0 74 0;
#X connect 69 0 75 0;
#X connect 70 0 76 0;
#X connect 71 0 77 0;
#X connect 72 0 83 0;
#X connect 73 0 95 0;
#X connect 74 0 73 0;
#X connect 75 0 78 0;
#X connect 76 0 79 0;
#X connect 77 0 80 0;
#X connect 78 0 95 0;
#X connect 79 0 95 0;
#X connect 80 0 95 0;
#X connect 81 0 82 0;
#X connect 82 0 91 0;
#X connect 83 0 68 0;
#X connect 83 1 84 0;
#X connect 84 0 69 0;
#X connect 84 1 85 0;
#X connect 85 0 70 0;
#X connect 85 1 86 0;
#X connect 86 0 71 0;
#X connect 86 1 89 0;
#X connect 87 0 88 0;
#X connect 88 0 90 0;
#X connect 89 0 87 0;
#X connect 89 1 81 0;
#X connect 90 0 95 0;
#X connect 91 0 95 0;
#X connect 92 0 93 0;
#X connect 93 0 72 0;
#X connect 94 0 92 0;
#X connect 95 0 66 0;
#X connect 96 0 42 0;
#X connect 96 0 43 0;
#X connect 96 0 44 0;
#X connect 96 0 46 0;
#X connect 96 0 47 0;
#X connect 96 0 48 0;
#X connect 96 0 49 0;
#X connect 96 0 50 0;
#X connect 96 0 51 0;
#X connect 96 0 45 0;
