#N canvas 550 136 282 525 10;
#X obj 13 253 pix_buffer \$1 \$2;
#X obj 13 179 pix_buffer_write \$1;
#X obj 13 460 pix_buffer_read \$1;
#X obj 13 30 r videoinput;
#X obj 13 488 s videooutput;
#X msg 13 355 0;
#X obj 13 331 loadbang;
#X msg 42 355 1;
#X obj 166 421 t f b;
#X obj 13 409 gemhead;
#X obj 118 421 t b;
#X obj 166 385 moses \$2;
#X obj 13 390 change -1;
#X obj 13 160 pix_separator;
#X text 22 232 video buffer;
#X obj 13 68 spigot;
#X obj 60 113 int;
#X obj 84 113 + 1;
#X obj 13 87 t a b;
#X msg 137 49 1;
#X obj 137 113 <= \$2;
#X obj 118 385 moses 1;
#X obj 137 30 r \$1-writevideo;
#X obj 118 346 r \$1-readvideo;
#X text 24 310 read from video buffer;
#X text 26 10 write to video buffer;
#X connect 2 0 4 0;
#X connect 3 0 15 0;
#X connect 5 0 12 0;
#X connect 6 0 5 0;
#X connect 7 0 12 0;
#X connect 8 0 2 1;
#X connect 8 1 7 0;
#X connect 9 0 2 0;
#X connect 10 0 5 0;
#X connect 11 0 8 0;
#X connect 11 1 10 0;
#X connect 12 0 9 0;
#X connect 13 0 1 0;
#X connect 15 0 18 0;
#X connect 16 0 17 0;
#X connect 16 0 1 1;
#X connect 16 0 20 0;
#X connect 17 0 16 1;
#X connect 18 0 13 0;
#X connect 18 1 16 0;
#X connect 19 0 16 1;
#X connect 19 0 15 1;
#X connect 20 0 15 1;
#X connect 21 0 10 0;
#X connect 21 1 11 0;
#X connect 22 0 19 0;
#X connect 23 0 21 0;
