#N canvas 619 104 604 754 24;
#X declare -lib mrpeach;
#X obj 136 28 gemhead;
#X obj 136 87 pix_video;
#X obj 137 419 gemwin;
#X msg 253 413 create \, 1;
#X msg 260 460 destroy;
#X obj 140 163 pix_texture;
#X obj 143 229 rectangle 4 4;
#X msg 283 40 dim 640 480;
#X floatatom 361 171 5 0 0 0 - - -;
#X floatatom 360 124 5 0 0 0 - - -;
#X obj 81 621 udpreceive 7000;
#X obj 83 667 unpackOSC;
#X obj 75 571 import mrpeach;
#X obj 82 705 print;
#X connect 0 0 1 0;
#X connect 1 0 5 0;
#X connect 3 0 2 0;
#X connect 4 0 2 0;
#X connect 5 0 6 0;
#X connect 7 0 1 0;
#X connect 8 0 6 2;
#X connect 9 0 6 1;
#X connect 10 0 11 0;
#X connect 11 0 13 0;
